<?xml version="1.0" encoding="utf-8"?>
<!-- Generator: Adobe Illustrator 25.2.3, SVG Export Plug-In . SVG Version: 6.00 Build 0)  -->
<svg version="1.1"
	 id="svg8" xmlns:cc="http://creativecommons.org/ns#" xmlns:dc="http://purl.org/dc/elements/1.1/" xmlns:inkscape="http://www.inkscape.org/namespaces/inkscape" xmlns:rdf="http://www.w3.org/1999/02/22-rdf-syntax-ns#" xmlns:serif="http://www.serif.com/" xmlns:sodipodi="http://sodipodi.sourceforge.net/DTD/sodipodi-0.dtd" xmlns:svg="http://www.w3.org/2000/svg"
	 xmlns="http://www.w3.org/2000/svg" xmlns:xlink="http://www.w3.org/1999/xlink" x="0px" y="0px" viewBox="0 0 595.3 841.9"
	 style="enable-background:new 0 0 595.3 841.9;" xml:space="preserve">
<style type="text/css">
	.st0{fill:#1D1D1B;}
	.st1{fill:#C83737;}
</style>
<sodipodi:namedview  bordercolor="#666666" borderopacity="1.0" id="base" inkscape:current-layer="layer1" inkscape:cx="304.72511" inkscape:cy="487.89307" inkscape:document-rotation="0" inkscape:document-units="mm" inkscape:pageopacity="0.0" inkscape:pageshadow="2" inkscape:window-height="1040" inkscape:window-maximized="0" inkscape:window-width="1267" inkscape:window-x="182" inkscape:window-y="0" inkscape:zoom="0.25" pagecolor="#ffffff" showgrid="false">
	</sodipodi:namedview>
<g id="ArtBoard11" transform="matrix(0.11199577,0,0,0.11199577,-72.441201,18.510269)" serif:id="ArtBoard1">
	<path id="path3" class="st0" d="M4496.2,968.6c-153.7,30.1-190.1,185.7-299.6,265.6c-132.1,153.7-211.6,359.7-340.8,518.8
		c-75.6,8.2-169.2,77.8-220.7,40.7c0,0-32.4-18.6-93.9,2.6c-13.8-53,129.3-136,46.8-108.3c-87,17.4-120.7,110.9-143.5,111.4
		c-59.5-18.3-137.6,2-132.7-1.8c2.5-8.2,1.8-85.1,39.7-140.7c3.6-32-27.5-17.2-90,61c-27,38.4-31.7,69.2-45.5,77.8
		c-5.6,0.2-33.5,6.7-33.5,6.7c-25.5-4.5-60.5,8.5-79.4-16c-31.8-23.2-111.8-89.2-94.8-50.2l34.2,84.9c-35.9,17.5-64.9-5.7-95.7-1.9
		c-71.8-113.7-129-217.2-186.9-336.8c-98.4-150.6-204.2-347-340.7-463.8c-39.3,1.5-71.7,39.7-53.5,76.9
		c-37-12.2-33.2,74.6-49.6,88.7l-13.7-50.2c-31,74.2-6.3,108.5-27.7,163.4c-12.8-4.3-27.6-26.9-34.1-34.8
		c-3.6,8.2,1.1,110.1,22.8,107.4l-15.7,36.4c-18.7,25.1-20.6,24.1-16.8,51c-15.4,41.2-15.3,39.3-59.6,59.9
		c62.2,84.3-22.3,179.9,20.2,265c-4.1,18.9-10.9,37.2-17.8,51.9l-7.1,33c-7.1,35.4,40.7,36.4,36.3,69l-104.5,63.4
		c8.5,2.4-20.9,14.6-14.9,25.2l49.7,4.1c28.5,7.9,33.5,16.8,50.5,22.7c-109.8,117.6-152.9,166-39.5,122.1l22.6-22.4
		c0,0,37.7-23.1,72.2-0.1c-56.9,59-84.4,149.3-155.7,200.7c13.5,61.8-64.1,91.7-81.8,143.8c5.5-2.9,15.2-0.3,26.7,4.7
		c30.2,7.9,11.5,39.9,35,66.1c-0.3-8.1,9.1-12.9,17.5-15.9c3.3-10.9,59.1-70.6,58.9-25.6c21,13.6-39.6,48.2-28.1,53.2
		c3.8,102.7-59.9,97.7-70.8,157.6l-26.6,38.8c-16.3,16.8-26.2,75.7-17.5,83.4c8-11.1,26-22.1,36.9-30.6l34.5-11.6
		c-36.9,66.3-96.7,154.6-107.8,233.6l-4,28.1l18.1,33.5c7.7-19.2,18.6-52.9,24.2-53.1c1.6-32.5,39.9-27.6,48-36.1
		c-25.5,71.3-13.7,160.2-50.6,229.3c7.8,59.2-35.8,96-8.5,149.2c2.3-13.7,13.7-21,24.6-29.5c23.5,26.2,18,55.1,10.8,87.8l-34.2-2.5
		c-34.9,5-0.5,25.4,13.2,41c4.5,21.4-1.2,29.8-3.2,51.6c18.4,39.9-3.8,124.6,52.4,122.5c-27.2-50.4,7.5-107.7,24.4-98.3
		c-5.4,81.3,3.6,189.7,49.3,271.4c-19.3,108.3-77.2,201.8-130.6,299.3c16.8-0.6,50.5-4.6,66.6-24.1l1,27.1
		c-109.6,152.9-181.9,328.9-149.3,525.2c29.7,42.3,31.9,101.6,33.6,147.6c-26,57.8-46.1,123.5-75.1,173.3
		c-43.9,104.6-135.2,145.8-213.5,235.4c25-37.6-208.7,133.6-44.1,99.1c-2.4,10.9,3.7,24.3,15.2,31.9l-38.8,90.8
		c33.9,4.2,55.9,65.5,51.4,95.5c-42.6,63.9-134.8,152.7-98.2,229.8c3.8-48.9,136-74.5,141.7-74.8c-41.7,115.3,0.3,190.7,0.5,189.6
		c4.5,10.6,21.6,125,66.5,166.4c-0.1-16.6,18.8-64,61.8-94.6c13.7,24.1,74.6,124.4,98.1,141.4c8.1-63.6-21.3-112.6,25.7-159.2
		c3-7.8,136.6,126.8,136.6,126.8c-120-248.6-137.2-299.7-139.9-372.6c-5.2-141.5,39.5-232.8,86.1-274l42.5-59.5
		c0,0-92.8,58.6-113.5,92.5c-185.3,253.6-19.8,589.9-107.7,423.2c1.4,2.6-12-37.1-12-37.1c-35.4-97.8,1.3-247.6,12.2-276.3
		c13.4-14.6-15.6,10-40.6,36.9c-9.6,12-66.4,89.9-94.7,81.5c15-135,182.9-292.4,270.4-359.3c0,0,101-28.8,95.2-80.5
		c3.6-9.6,21.1-70.8,11.2-70.3c-17.6,12.4-47.4,31.1-41.4-4.6c17.8-108.4,45-228.4,38.4-296.5c-15.3,17-31.8,5.9-30.4,41.2
		l-12.7,50.2c28.6,15.5-11.1,63.9-16,92.4c-11.9,2.9-22.5-13.3-29.8,5.9c-4.9,28.4,10.5,13.7,20.9,22.8
		c-21.4,125.7-3.9,197.9-282.8,378.7c21.8-14.2,34.6-86.5,105-137.8c25.9-18.9,91.8-79.7,91.8-79.7l-1.5-40.1
		c-36.1-3.4-78.6,38.3-78.6,38.3l-152.8,77.6c76.8-85.5,288.8-270.2,287.6-409.3c63.3-73.1,71.9-198.7,76.5-290.9
		c-33.7,6-15.1,87.1-55.2,83.9c0.2,4.7,25.3-288.7,120.7-412.5l14.5,11.2c-12.2,47.6-58.4,111.8-55.6,171.8
		c0.9,19,23.7-27.8,29-25.7c20.9,8.3-8.3,82.6-21.2,148.2l1.4,18.7c37.6-65.1,51.2-183.5,51.2-183.5c-4.6-10.8-5.1-23.5-5.1-23.5
		c5.2-23.8,30.9-27.1,27.5-64.8l8.1-9.5c0,0,13.8-5.3,23.6-10.3c-15.5,33.2-7.9,72.4-3.3,110.4c-0.8-26.8,12.2-54.4,26-83.3
		c19-54.2,8.4-101.1-0.4-151.8c10.1-34.5,18.4,51.5,41.9,82.9c24.3,32.5,33.9,71.8,62.6,101.5c20.4,21,70.4,55.2,100.3,49.3
		c2.4-17.4-48-55.4-61.3-75.5c-23.9-36.4-48-74.6-65.1-115c-9.4-22.2-20.2-72-37.1-113.6c52.1-43.8-31.8-89.9-15.4-149.6
		c-17.3-13.3-44.1-10.2-50.9,11.2c9-65.7-23-134.2,32.6-146.8c10.3,13.4,26.1,26,42.5,37.2c8.8,71.4,17.8,117.5,49.6,182.6
		c14.9,30.5,66.8,189.4,122,169.4c33.9-12.3-10.1-53-23.5-70.8c-32.2-43.2-62.2-78.8-75.1-130.9c-10.5-42.1-7.5-133.6-46.7-169.6
		l-24.5-53.2c18.2-31.9,29.1-97,30.9-112.6c6.4-52.9,16.1-79.3,43-126.4c26.3-46.1,111-152.8,64-206.4l-3.6,0.2
		c-44,59.6-85.1,126.3-107.3,195.8c-7.1,22.4-55.8,131.3-67,203.2l-36.1-5.3c-9-58.8,8.4-104.9,19.1-156.9
		c6.9-33.4-148.4,104,22.9-123.4c48.2-97.7,146.2-194.1,115.5-197.7c-39.1-44.3-313.8,303.6-221.4,103.1
		c63.1-115.3,197.2-165.5,197.2-165.5c22.5-76.7,47.6-101.4,91.2-138.3l-92.1-5c-130.2,30.1-261.4,35-86.6-27.6
		c0,0,70.8-42.2,220.4-12.5c35.7-26,73.9-26.6,73.9-26.6c-23.5-34-67.3-40.3-76.1-43.5l-68-37.6c-6.9-33.8,159,2.5,208.9,50.1
		c-2.7-26.5-27.1-66.6-66.7-87.6c0,0,11.9-62.6,151.9,74.1c26.2-6.5,50.1-7.4,72.1-5.8c38.5-44.2,23.8-65.1,21.4-87
		c-9.2-66-111.5-87.6-111.5-87.6c25.2-31.7,119.7-8.5,142.6,26.9c0,0,63.6,17,12-45.6c-25.3-30.7-49-47.2-68.9-56.7
		c-131.7-26.9-267.8,37.5-403,51.1c3.9-63.1,74.8-83.8,91.3-141.3c-10.2-23.7-22-5.2-37.3,1.4c-47.1-10.3-88.4-29.7-141.4-30.7
		c-0.4-12,14.9-18.6,20.8-27.8c41.6,28.4,32.2-55.2,79.8-33c76-50.8,141.9-122.2,235.4-122.7c-0.5-15-16.5-26.4-29.1-28.9l-37.3,1.4
		c2-30.1,16.3-63.6,40.7-79.5c71.6-2.7,134.6,15.9,203.6,28.4c-5.5,21.2,14.3,50.5-13.2,63.5c-32-22.8-63.9-39.6-98.4-47.3
		c-33.7,16.3,1.4,36,1.9,50.9c77.6-8.9,108,139.9,168.1,80.7c28.4,7.9,11.1,47.6,15.1,71.4c-9.4-2.6-38.6-31.5-58.9,8.2
		c10,11.1,35.6,98.8,16.2,139.3c21.7,11.1,45,26.9,68,48.9c64.6-2.4,51.6-92.7,93.5-143.8l9.7,132.6l70.5-25.5
		c-37.1,60.9-2.3,67.9,53.8,65.9c48,3.7,68.2-23.7,92.7,29.5c-71.2,7.3-124.2-10.9-169.8,47.6c26,18,65.5,26.8,55.2,51.6
		c-158.7-15.6-156.4,43.9-178.1,87.9c36.6-1.8,93.1-12.4,116.9,43.2c19.1-16.9,112.8-107.1,112.8-107.1
		c35.9,22.3-58.5,127.4-58.5,127.4c-41.3,25.2-19.1,54.8-8,68c40.9,10.9,99.6,30.1,99.6,30.1c126.3,86.6,67.6,115.9,68.1,129.4
		c-27.3-73.4-82-75-105.1-90.3l-31.3-10.9c-20.3-15.5-14,4.4-36.6-0.2c-24.4,25.3-11.6,111.7,17.2,132.4
		c135.8,0.2,219.3,101.4,182.2,113.6c-108.1-70.4-142.8-61.8-193.4-62.7c-22.3,6.3,85.2,104.1,105.4,172
		c32.4,49.4,40.8,79,48.2,120.4c3,80,20.6,110,29.2,79c48-40.9-59.7-309.5,45.6-187.1c0,0,40.8,61.4,35.2,61.6
		c-1.9,24,38.7,111.4,48.5,146.2c12.6-24.7,54.3-36.1,32.2-76.7c22.4-3.5,42.3,3.9,59.8,19.4c-0.3,8.5,15.3,74.6,15.3,74.6
		c29.6,42.1,5.5,106,2.3,171c36.2-9.4,61.3-69.8,65.7-105.2c-3.1-32.3-11.4-29.2-9.7-59c0,0-52.7-194.9-14.8-234.2
		c8.8,10.5,42.4,173.5,81.9,212.4c26.8,22-7-97-7-97c-15.4-34.6-38.4-157.1-28.1-255.6c33.9-216.7,14,7.2,109.6,259.4l40.9,34.9
		c11.5,49.8,0.6,95.3-14.8,137.7c-80.8,4.2-107.2,68.9-107.2,68.9c-7.4,103.1-21.1,158.3-28.2,269.5
		c-49.4,110.1-158.7,195.4-239.4,295.8c28.3,4.4,58.4-18.4,86-30.2l183.8-201.8c29-19.2,32.6-28.6,49.1-40l25.7-29.7l21.6-61.1
		c-1.1-29.7,54.5-101.6,78.5-135c25.1-46.8,72.3-60.1,47.2-13.2l-67.1,137.9c18.1,31.9-11,81.6-29.4,117.6
		c-104,76.9-186.6,199-284.8,283.9c-6.9,43.5-84.9,62.8-52.4,104.9c75.6-8.3,123.2-143.8,208-133.4l132.7-122.6
		c77.8-7.5-58.6,188.8-290.1,332.7c-16.2,17.5-12.4,40.4,48.5,17.1c94.9-40,121.5-61.3,164.4-117c35.2-36.6,78.4-84.2,131.5-94.3
		l8,64.7c51.3,19.7,45.9-50.5,88.2-49.2c65.6-51.2,114.2-104.4,182.8-150.3l102.4-77.2c96.2-132.2,55.4,42.4,3,89.1
		c-49.1,43.1-64.5,75.2-117.5,94.5c-44.3,13.1,219.7,29.4,92.1,64.2c-33.4,9.3-58,13.4-100.9,15l-62.5-1.4l33.3,55.1
		c52,50.2,72,46.1,96,64c45.4,65.9,68.2,50,104.7,86.2c-45.5,61.2-189-45.6-270.4-130.6c-6.4-21.4-20.6-25-50.8-7.7l46.2,88.4
		c-30.2,20.1-102.9-90.8-127.2-62.8c10.1,42.9,52,104.2,70.2,138.7l9,27c-1.8-0.3,98.8,109.3,91.1,109.6
		c-47.6,7.1-191.5-113.1-212-198.6c-0.2-5.4-35-32.7-26.7-35.7c-8.8-7.9-14.8-18.4-25.8-12.6c-112.4-24.5,85.7,174.1,76.6,231.3
		c-56.6-11.4-193.8-132.2-248.9-100.3c9.5,29.4,221.2,176.2,214.2,214.3c-98.3,3.7-348.7-198.5-462.8-167.2
		c-11.6,65.3,154.1,108.7,145.7,184.8c-36.1,9.5-92.6-4.6-133-32.8c-6.2-13.3-51.5-25-60.3-35.5l-27.2-10.8
		c-16.9,0.6-23.4-23.5-42.8-17.3c-26.8,36.2,28.1,74.7,18.2,110.3c-57.7-35.8-143.1-65.1-188.5-150.1l-14,0.5
		c-36.7,71.8,80.5,141.3,140.7,176.8c82.8,37.4,278.8,103.1,206.8,130c0,0,0.5,13.4-64.9-11.1c-256.2-98.5-340.7-193.5-340.7-193.5
		c-83.3-39.2-76.1,1.1-49.7,26.3c47.4-12.5,149.3,100.5,167,124.2c-49.3,34.3-183.2-104.7-223-116.7c-15-23.8-21.9-58.7-47.7-74
		c1.9,51.4,37.7,106.9,45.5,166.1c103.7,142.3,193.3,82.3,339.3,147.3c29.8,6.9,145.9,113.5,138.5,140.9c10.7,99.3-112.3-42-125-3.7
		c-29.7,33.5-22.6,71,18.4,118.7c14.8,21.1,134.4,115.5,149.2,136.6c77.6,210.8,69.6-64.4,38.1-155c-60.5-43.6-18.1-77.4-21.2-85.3
		c79.2,13.3,111.1,114.9,128,190.1c-0.2,16.7-0.3,33.4-0.4,50.2c-89.2,539.3-145,119.6-249.3,17.4c-26.1-25.6-38.2-40.6-69-45.1
		c-250,367.8-248.5,267.6-204.4,176.3c82.3-55.8,128.9-221,121.3-316.9l-18.4-42.6c-12.7-37.4-14.7-53.6-46.5-76.7
		c-23,60.4-14.6,119.4-51.6,203.5c-43.1,73.3-90.3,190.9-257.6,241.2c102.8-86.6,113.8-98,187.4-269.2c21.8-50.7,46.4-187.2,6.9-180
		c-19.9-7.3-34.5,56.3-39.6,70l-4.8,38c-105.8,108.5,2.6-238.2-59.4-204.3c-40.8-10.1-92.2,499.1-199.7,461.5
		c64.5-192.7,93.2-332.2,52-379.4c-1.2-32.4,11.8-163.3-14.4-186.7c-35.9,17.6-39.1,107.5-66.1,138.3c-0.8-21.6-27-45-57.9-43.9
		c5.8-70.5,34.3-136.5,20.1-214.6c21-38.7,1.7-105.6,34.5-131.2c9.3,24,71.8,137.3,92.2,155.6c30.5-12,1.8-123.9-24.7-158.1
		c-26.6-34.2-16.1-129.4-77.2-108.2c-23.3-20.7,17.3-65.5-35.8-55.5l-17.2,65.6c-9-13.2-20.3-15.5-34.3-12.2
		c-55,110.3,48,231,13,348.7c-9.5,49-24.6,95.6-57,132c-37.7,184.2,75.2,309.1,79.2,320.6c38.5,111.6-74.1,11-112.1-86.9
		c-60.4-157.8-22.7-294-23.5-315.6l5.4-5.6c31.4,12.3,22.7-374.4-25-369.9l-61.2-133.1c-68.1,59.4-30.7,158.2-2.6,232.9
		c-7.9,13.8-16.1,22.2-12.6,38.3c-76.1-78.4-69.3-200.4-92.5-294.2c-12-21.2,18.3-35.9-1.9-51.4l-32.3,33.4
		c-4.3,56.7-25.7,112.6-30,172.3l52.4,9.8c22.8,74.7,23.5,147.8,66.1,216.9c-25.8,8-28.5-10.8-52.1-2.8
		c7.8,49.2,100.5,121.2,115.4,141.9c0.2,7.1-96.8,23-125.4-46.6c-12.4-11.3-14.7,47.1-14.7,47.1c49.7,151.4-203.1,262-143.5,591.1
		c2.1,20.2,32.7-197.5,65.6-265.1c25.3-34.5,62.8-102.5,82.8-103.3c15.4,37.2-95.5,139.2-52.3,170.6c26.2-48.2,105.1-70.9,125.8-154
		c0,0,1-44.1,5.5-84.3c23.9-3.4,39.2,85.8,35.1,83.5c-6.3,88.9-6.5,94.6-42.9,138.4c-33.3,32-156.1,189.5-49.2,370
		c0,0,19-255.7,72.4-286c108.8-65.3,54.9,67.9,43.9,103.5c-24.9,113.1-15.5,169.8,8,262.2c57.9,50.9,73.1,119.7,124.2,133.4
		c21.4-99.5-4.1-205.2,39.4-304c-1.9,67.8,23,162.2,49.2,220.6c6.5-18.4,36.3-62.7,49.1-83c6.5,91.6-7.3,177.7,78.7,241.9
		c40-23.8,37.8-70.8,47.8-118c20.2-95.2,41.7-154.5,144.1-237.3c-2.1,84.5-13.7,208.2,73.7,282c94.7-100.3,114.5-152.8,172.2-277.3
		c33.6,108.8,81.6,172.5,55.6,305.7c62.6-18.2,117.8-107.4,150.6-201.2c29.4,78.5,63.6,136.2,124.2,179.5
		c22.9-68.4,31.9-148.8,55.7-220c33.5,109.1,176.5,199.4,286.8,250.4c-2.7-82.1-36.5-130.5-28.2-226.9c0.8,1.3,1.4,2.6,2.1,3.8
		c-4.2-64.6-10.3-110-35.1-92.7l-31.5,133.4l-24.4,22.5l-18.8-9c-21.2,0.8,25-214.9,37.4-260.5c15.9-294.7-167.4-413.5-220-468.2
		c-68.4-178.4,127.4,30.4,248.8,189c14.8,17.5,94.7,230.6,107.9,316.8c177.8-323-123.6,363.2,134.4,353.6
		c-16.8-168.1,24-213.8,26.3-224.7c79.5,75.7,69.5,241.3,222.3,238c-21.5-38.4-95.1-182.5-20.1-172.6
		c81.8,10.8,143.5,120,152.3,187.4c104.9-50.9,100.8-148,133.2-247.5c59.1,29.4,118.4,156.3,140.4,243.7
		c50.2-102.4,50.5-188.9,41.8-308.5c83.3,67.7,170.1,178.2,157.8,273.6c26.8-61.6,109-75.5,116.1-141.4
		c7.8-74.4,11.7-98.6-22.1-167.9c55.3,41.7,41.5-46.7,92.9,2.3c-54.5-119.9-30.5-262.8-87.3-383.8c48.9,28.2,96.3,63,140,96.2
		c3.7-100.2-11.1-201.3-38.2-295.9c-12.3-22.6-26.1-44.1-42.4-64c-1.4-3.5-35.3-41.1-33.7-47.1c45.2,6.5,109.3,64.4,143.5,74
		c16-39.3-27-81.7-47.6-113.4c-49.6-95.4-152.6-133.8-169.4-141.4c-13.8-12.3-92.4-43.7-45-85.1c18.3-12,67.3-51.6,92.3-63.3
		c10.9-8.6,16-22.3,12.8-33c11.6-27.2-76.2-102.3-128.5-149.1c-59.7-53.1,217.7-1.2-69.5-138.3c-46.5-9.4-47.5-31.2-75.3-71.2
		c-1.1-3.1-2.2-6.4-2.9-9.7c4.3-5,8.9-10.4,13.6-15.7c49.2-1,74.9-40.7,105.3-64.9l58.2-64.4c47.4-87.9-30.1-27.1-112.7,18.5
		c-29.9-1.7-61.4-1.6-72.1-21.6l-13.4-40.6c9.6-43.6,59.8-56.3,92.9-73.8c0,0,53.6-40.3,57.5-44.4c88.4-29.1-198.3-61.7-221.4-95.1
		l4-32c58.7-128.1,150.3-388.5,150.3-388.5c7.8-168.1,77.9-327.7,49.3-489.1c62.6-56.4,31.7-131.1,6.6-200.5
		c52-112.9,42.3-375.2,53.4-378.3c18.4,39.9,39.6,82.4,52.6,128c0,0,41,96.5,37.7,83.1c21-41.4-13.8-197.7-38.2-245.5
		c0,0,0.2-83.8,141.9-0.2c16.5-109.2-200.8-160.4-64.9-229.5c133.4-33.1-176.1-38.3-177.6-131.9c11.1-5.9,94.3-13.1,105.5-13.5
		c132.8-14.8-132.1-82.5-132.1-82.5c-18.6-5.7-71.9-19.8-50.3-45c12.1-16.1,31.5-19.7,31.5-19.7l89.4-1.5
		c22.1-38.2-57.3-34.6-47-48.5c18.9-22.3,108.7-67.6,26.4-69c-64.7-0.3-64.4,41.8-126.1,46.8c-22.5,6.6-13.5,15.2-50.7-2.4
		c-11.4-5-18-18-18.3-26.1c4.5-15-13.1-38.9,25.9-51.2c74.6-35.2,89.9-99,121.2-165.1c2.5-69.2-52.2,56.2-105.6,58.2
		c-40.6-33.7,9.2-36.3,10.6-77c0,0,1.5-32.5,6.5-51.6c-12.9-72.9,31.4-83.6,13.7-107.4c-2.7,2.8,18.7-72.4,35.8-64.9
		c-26.6-34.2-36.9-27.3-56.9-34.7c0,0-15.7-35.9-17-71c-47.9-0.9-20.3-91.3-57.2-100.8c5.9-67.9,11.5-143.9-41.2-201.5l-13.6-10.1
		L4496.2,968.6z M2392.4,1226.2c0,0,38,56,20,35.3c19.6,22.7,19.2,62.3,32.9,75.7c5.6,5.5,9.1,15.9,20.2,12.8c0,0,41,44.5,41.9,68.8
		l47.6,3c5.4-5.6,38.3,37.1,35.1,26.4l20.4,18.2c-4,43.5,39.9,90.6,46.9,128.2c-53.8-8.8-76.1-21.5-127.4-38.6l-22.9,6.2
		c19,56.1,126.1,75.3,114.5,143.4c-45.6-14.5-105.8-59.8-105.8-59.8c-31.7-20.4-72.8,8.1-71.8,35.2
		c31.7,20.5,166.7,80.8,157.2,129.9c-10.9,8.5-116.3-32.5-125.7-56.6l-43.2-5.6c-26.6,41.6-19.2,11.9-36.8,69.4
		c51.2-61.5,117.8,72.3,171.1,67.6l9.2,18.6c-27.6,14.5-139.4-19.9-135.1,20.6c-0.2-5.4-46.9-3.8-50-9.1
		c-17.1-7.5-114.3,28.6-136.1-27.4c15-203.6,17.7-433.8,106.6-613L2392.4,1226.2z M4434.6,1282.7c22.6,77.6,75.7,143.4,42.1,225.8
		c15,99.6-17.4,214.5-11.2,303.6c-14.5,65.5,18.5,164.2,29.3,228.8c33.9,4.2,4.2,113.4-128.6,126.8c-75.7,7.7-67.4-97.5-189.8-39.7
		l-20.2-48.1c-56.5-88.8-21.6-58.5-61.9-115.9c42.3,3.8,69.9-10.7,114.5-23.2c-38.1-41.9-234.9-13.5-266.8-39.4l50-19.6
		c27.8-9.1,99-40.6,194.3-18.7c59.4,13.7,88.7-62.6-128.9-85.9c-92.7-9.9,215.9-71.6,229.8-74.9c-18.6-45.3-86.7-15-131.3-29.2
		c-14.7-4.7-151.5,43.9-151.5,43.9c26.1-55.1,225.3-126.2,282.2-182.5c-44.5-63.3-102.5,41.7-168.3,11.7l0.6-15.5
		c9.2-44,38.2-75.2,70.7-109c39.7,6.6,27.2-25.4,53.1-10.1c53.2-7.4,86.2-103.3,150.9-103
		C4393.4,1308.6,4435.4,1301.6,4434.6,1282.7L4434.6,1282.7z M2667.1,1645.7c28.4,2.1,215.4,143.2,226.2,164.6
		c29.5,58.5,73.7,90.8,97.4,201.1c-39.4-29.8-90.6-64.4-140.9-70.7c102.1,93.2,147.3,136.6,159.7,207.2
		c38.2-62.7,67.6-54.4,106.4-61.4c4.6,12.9,15.5,25.3,20.2,35.3c21.8-48-22.7-202.5-16.2-255.5c22.2-36.3,101.3,210.7,89.4,257.3
		c46.2-11.2,54.7-51,72.3-85.7c30.2-59.4,123-179,164.2-151.5c-46.6,51.8-113,146.8-146.3,214.9c20.6,7.9,43.9,11.3,65.8,7.1
		c92.1-93.3,140.7-107.7,199.1-135c107.5-50.2,208.1-50.7,269.2-30.4c202,21.5,249.2,189,283.1,239.2c13.8,42.8,83.2,51,67.8,100.3
		c-24.9-4.5-39.7-6.6-59.3-3.2c-45.5-30.8-43.7-71.3-97.9-112.8c-45.3-25.3-93.1-53.4-137.3-49l-10.9-31
		c45.1-47.7,109.9,43.6,158.3,20.2c-9.3-51.1-134.7-108.2-171.8-113.2c-127.6-7.9-168.5,4.2-285.2,37.1c-15,5.2-29.8,11-44.3,17.5
		c89.9-26.4,144.6-7,228.4,23.3c-132.6,24.4-191.3-28.1-302.5,69.3c-36.7,32.1-108.6,56-151,86.2c-71.3,50.8-28.6,97.3-93.1,152.6
		c-13.2-46.3-18.6-97.6-33.7-143.9c-43,44.5-81.3,86.2-118.3,136c7.3-52.3,22.6-117.2,10.5-168c-49,37.7-89.9,97.1-135.1,139.9
		c-7.9-79.6-74-145.3-92.8-199.5c-42.5-59.7,73.8,0.5,105.5,38.1c4.4-96.7-123.5-97.5-191.2-114c7.3,46,42.7,79.7,53.3,124
		c-22.6-24.1-65.7-31.3-102.3-41.4c-26.1,31.1-52.7,67.5-85.3,85.2c-30.5,16.6-64.8,9.4-97,20.6c-37.2,12.8-72.7,36.9-103.8,61.2
		c-53.4,41.7-98.2,105.3-132,161.6c-6.2,10.3-14.4,35.9-28,38.9c-18.7,4.1-33.6-22-34.4-35.5c-1.6-27.4,30.3-64.6,47.7-84.6
		c58.7-67.7,104.7-130,194.3-166.7c45.8-18.7,48.1-7.4,90.9-22.5c26.2-9.2,29.5-33.2,6.4-39.5c-18.3-5-66.6,0.1-109.3,11.1
		c-37.1,9.5-71.1,23.4-102.4,43.7c-4.4,2.8-9.2,6.1-14.3,9.6c-23.3,19.7-51.6,45.2-81.3,67.5c-21.2,27-77.7,105-100.8,71.8
		c-3.7-5.3-3.6-12.8-1.4-21.5c-1.6,0.2-3.3,0.5-5,0.6c16.7-52.5,15.8-65.5,57.1-103.5c40.8-37.6,86.9-78.3,138.1-101.2
		c110.6-49.5,234.6-31.5,353.8-42.3c-24.9-48-107.7-62.6-158.9-62.1c-80.3,0.6-208.5,31-279.7,64.2c62-95.6,160.1-110.3,231.9-124.5
		c103.3-20.4,214.7,1.7,332.1,30.9c1.6-61.9-176.3-79.9-220.1-83.5c40.8-31,89.7-37.2,136-40.5c-19.2-53-76.8-112.1-128.7-124.3
		c-53.1-75.5,170.3,44.7,193.7,70.2c0.9-48.7-78.3-119.7-144-175.3C2662,1649.7,2661.9,1645.3,2667.1,1645.7L2667.1,1645.7z
		 M3749.1,2134.7c18.6-0.4,40.7,5.6,53.4,7.8c14.8,21.1,43.3,30.8,68.1,16.4c21,34.4,76.1,2.6,75.2,54.1
		c59.7,16.7,79.1,83.7,120,125.5l-27.1,28.1c33.6-3.9,29.2,28.7,30,50.3c107,80,137.8,225,162,345.9c9.6,32.1,41.7,60.7,23.3,96.5
		c-25.7-9.9-32.8-50.2-50.7-76.6c-0.8-21.6,3.9-46.1-8.1-64.7c-25.1,3.7-32.2,39.1-45.5,61.2c-5.1,13.7,9.1,18.6,15.2,31.9l-28.1,1
		c-27.9-69.3-133.5-108.7-108.4-190.8c8.4-0.3,11-5.8,13.7-8.6c12.9-33-31.8-23.2-35.6-50.1c-21-34.4,37.1-63.6-3.1-83.8l-13.6,14
		c17.3-65.6-35.1-112.4-64.8-154.5l-14.5-13l74,24.3c26.5-44.3-44.9-71.5-71-94.8c-76.1-2.6-113.8-109.5-197.5-90.1
		C3715.2,2141.7,3730.4,2135,3749.1,2134.7L3749.1,2134.7z M4561.9,2200.7c0.1,0,0.3,0.1,0.5,0.5
		c117.2,125.6,118.1,404.1,59.6,571.4c1.3-116.5-13.3-245.9-56.3-344.4c-37-12.2-13.8-37.5-48.1-52.5
		c-38.1,12.4-14.1,113.9-36.1,117c19.4,85.2,23.9,202.5,67.1,271.8l-7,38.2c-54-17-33.2-61.1-76.4-89.2
		c-10.3-48.4-45.4-84.9-52.8-133.4c-23.8-37-39.2-81.7-38.3-123.1c0.7-32,16.3-61.9,32.3-62.1c1.4-1.8,2.4-3.6,4.1-5.4
		c5.8,5.2,10.7-37.2,19-40.2c27.1-28.1-62.3-78.9-63.1-97.8c44.9-1.7,82.3,18.6,108.7,47.4
		C4570.5,2361.6,4557.3,2201.2,4561.9,2200.7L4561.9,2200.7z M3333.7,2402.4c4.1-0.1,8.3,0.1,12.7,0.6
		c-45.9,79.4,52.5,22.9,40.8,43.2c25.4-13.9,32-1.9,56.6-15.8c50-20.2,53.6,1.4,53.6,1.4c63-30.9,141.7,11.2,166.9,10.3
		c0.3,8.1,0.6,16.2,9.2,18.6c-42.8,31.5-92-42.1-115.1-0.5c17.4,20.2,34.4,41.4,54.7,55.6c0.1,4.2,42.1,24,41.1,29.9
		c20.1,21.7,31.9,38.2,36.8,69.9c-31.9,8.3-27.4-36.8-48.9-20.9c20.1,67,104.2,122.8,69.5,206.2c-8.3,0-16.5,1.8-24.5,4.9
		c-0.2,0.3-0.4,0.6-0.6,0.9l-14.2,6.1c-53.4,29.4-102.2,99-156.1,30.4c-0.5-1.1-1.4-1.9-1.9-3c-57.9-36.8-124-90.9-143.5-127.3
		c-73.1,0-173.9,38-210.7-41.8c29.8-30.9,32.2-63.5,0.3-89.3c16.1-22.2,46.7-37.7,65.7-57.4c25.8,12.6,44.3-8.5,63.9-9.3
		C3251.4,2470.9,3272.7,2403.9,3333.7,2402.4L3333.7,2402.4z M3800.4,2467.4c74.6,37.8,72.1,54.3,80.9,70l21.7,23.2
		c10.7,10.7,26.8,33.4,31.7,38.8c22.7,24.8,46.5,60.8,56.9,93.7c31.3,46.2,50.1,99,71.6,149.6c21.6,50.6,78.9,239.6,126.2,271.2
		c51.2,34.1-4-134.7-5.8-173.5c-2.7-58.2,51.6,26,55.5,55.6c35,10.2,49,55,70.5,81.8c24,29.8,48,60,89.8,68.4
		c16-25-39.4-74.3,16.6-84.5c-52.3-44.1-129.9-89.9-121-152.5c42.8,14.6,71.7,113.7,147.6,110.9c14.7,18.4-0.3,67.7,41.5,58
		c41.2-25.9,8.8-65.3-3.4-91.9c-65.5-21.9-103.8-69.2-139.7-124.7c-6.8-32.2-44.5-60.6-23.2-96.6l37.1-58.2
		c14.5,10.3,38.2,44.6,10.9,64.6c52.8,57.6,98.2,145.2,175.8,188.3c49.4-31.6,77.4,37.7,128.5,52.1c-5.1,13.7-10.1,30.2-23.7,41.5
		c42.7,90.5,27.6,212.8-31.3,293.5l-21.1,12.9c-23.1-18.1-26.9-18.8-19.5-43.8c7.1-24-21.2-44.7-16.2-58.9
		c-30.1,86-5.4,266.2-30.2,356.5l-27.1-81c-28-46.4-28.9-113.3-48.6-164.2c-13.9-36.3-37.3-64.5-86.7-71.6
		c-37.4,55.5,45.1,76.8,24.7,134.4c26.6,36.9,17.5,164.5,22.4,98.7c-11.1,148.8-2.6,238.2-68.6,278.5
		c-19.2-62.7-11.3-201.6-20.6-263.4c-9.3-62.1-81.2-232.1-152.9-266.1c-23.9,38.8,88.2,136.7,97.9,337.9l-7.6,78.7
		c-18.1,29.2-44.9-139.7-75.6-133.2c-48.3,61.3,34,189.1-17.2,247.9l-20.3,34.3c-17.4,34.9-37.6,46.5-56.6,88.6
		c-19.2,42.4-29.9,71.2-54.7,94c-77.7,71.2,18.4-38.4,1.1-124.4c11.3-0.4,35.3-75.4,43.5-81.1c2.3-16.3,23.3-34.7,17.3-45.4
		l-73.2,52.9c-11.9-18.5,4.5-15.1,0.7-39.4l5.5-20.4c24.9-11.7,8.8-68,2-97.5c-32.4-42.1-43.4-109.4-79-159.5
		c-60.8-122.2-185-206.9-276.2-314.6l-25.3,0.9c-10.6,5.7,15.8,26.9,7.1,40.4c-10.3,16.1-20.9,7.9-27.6,14.6
		c-42.8,42.8-43.6-36.3-75.1-51.3c1-51.5-29.4-71.6-64.4-102.7c-16.1,19.5-23.1,16.6-19.4,40.9c45.3,6.4,24.6,55.9,50.7,76.6
		c-34.3,60.8,45.6,90.3,5.8,156.8c-77-102.7-98.7-231.8-208.5-311.6l-39.3,1.5c-18.5,33.2,21.7,56,50.2,63.1
		c54.1,92.8,129.1,185.5,117.9,296.1c1.1-10.1-52.7-48.9-112.2-136l-86.5-138.1c-73-206.1-39.1-216.5-30.5-238.8
		c14.2-36.3,72.6,9.9,172.1,38.6l31.1,17.7l36.8,19c17.3,12.9,72.6,64,56.1,47.5c9.6,9.6,32.1,33.7,39.4,35.2l29.7,3.4
		c40,14.8,50.5,41.8,103.1,50.3c63.9,10.4,132.8,89.8,160,143c29.4,34.1,74.9,45.9,90.2,80.5c16.3-16.8-1.6-43.2-2.4-64.9
		c66.6-24.1,16.5,67.1,51.2,90.1c21.3,42.5,86.2,48.2,90.9,99.5l8.4-0.3c22.7-71.2-63.9-130.3-75.1-205.7
		c-36.1,12.2-61.6-68.1-87.6-10.3c-34.3-15-18.8-53.4-45-74.1c-31.4-12.4-66.1-38.2-83.6-56.5l144.6,20.5
		c-1.4-37.9-149.4-74.4-148-112.3c37.7,31.1,63.4-34.9,95.7,4.5c28.5,9.8,146.4,76.4,162.9,67.7c-1.4-40.1-165.9-162.3-186.7-195.6
		c-0.4,1.8-62-55.3,100.5-1.1c50.7,16.9-34.6-150.7-48.9-198.2C3890.2,2620,3834.7,2552.3,3800.4,2467.4L3800.4,2467.4z
		 M3731.3,2586.4c17.8-0.8,27.7,29.3,32.3,26.8c0,0,20.2,12.8,20.5,20.9l57.7,114.3c-5.3,108.4-80.5,266.4-192.7,200.2
		c34.1,9.6,121.2-108.6,121.2-108.6c10.9-11.2,31.5-106.3,2.4-129.6l-35.1-36.6l-1.9-51.4l-15.3-31.9
		C3724.5,2587.8,3728,2586.6,3731.3,2586.4L3731.3,2586.4z M2262,2638.1c14.7,0.1,29,1.7,42.1,4.9l0.1,2.7
		c15.1,27.9-31.5,34.7-51.3,37.1c-30.1,3.6-45.5,6.6-72.2,22.2c-22.7,13.2-73.7,80.4-99.5,59.5
		C2089.5,2683.2,2182.5,2637.8,2262,2638.1L2262,2638.1z M2342.2,2683.4c3.3-0.1,5.9,0.6,7.5,2.3l-43.2,33.3
		c8.2,37.7-53.5,64-71,95.3c-11.2,20-37.2,43.1-48.8,63.1c-11.5,19.9-107.3,148.8-105.2,106.9c2.9-59.8,38.2-104.7,49.9-117.5
		c19.6-21.2,35.2-44.6,51.5-67.1c19.8-27.3,30.9-51.7,62.6-68.2C2258.8,2724.5,2318.9,2684.2,2342.2,2683.4z M3605.1,3293.2
		c25.2-1.4,98.5,81.5,122.8,93.2c23.7,81.1,131.6,121,130,214.2c33.8,31.5,26.1,88.3,24.8,121c1.2,15.7,20,33.9,6.1,48.4
		c-42.7,3.7-64.4-53.7-65.8-90.2l-51-119.7l-46.3-74.8c-26.2-58-85.5-143.2-123-191.6C3603.6,3293.4,3604.3,3293.3,3605.1,3293.2
		L3605.1,3293.2z M4474.2,3783.1c3.1,52.4,3.9,102.3,0.1,155.8c-3.9,55.5,3.9,130.4-40.3,172.8c29-5.4,58-21.9,88.5-28.3
		c-21.1,39.4-47.7,87.4-36.9,129.6c20.6,81.2,105.6,88.5,165.4,130.9c-42.6,11.3-156.5,7.1-182-37.9c24.9,54.6,41.1,113,77.9,160.7
		c43.3,56.2,110.5,103.6,144.7,164.5c-115.9-27.7-224.8-72.4-288.3-176.6c-37.2-61.2-58.3-167.6-29.9-236.2
		c-27.7,24.6-71.3,32.7-96.8,58.7c-3.4,4.7-6.9,9.3-10.7,13.8c3-5.1,6.6-9.7,10.7-13.8c37.8-53.1,50.6-119.6,83.7-175.3
		c-24.9,20.5-59.4,12-84,30.7c54.1-60.2,147.2-93.2,138.4-184.7l11.3-46.5C4441.8,3863.1,4462.4,3823.7,4474.2,3783.1L4474.2,3783.1
		z M4263.2,3858.1c47.3,2.1-74.2,149-142.8,261.6c-57.4,62.1-39.6,142.4-111.2,196.7c-30.7,49.1-54.4,82-120,108.4
		c-73.7,24.3-79.3-9.1-65.1-82.6c17.4-31.2,10.4-52-8-94.8c-41.4-48.8,1.5-72,67.9-239.5l30.1-53.5c79.4-77.5-90.3,227.4,2.9,254.4
		c5.3,31.2-12.1,57.6,0.8,90.9c117.5-42,54.1-122.7,138.4-199.5c-30.7-36.1,160.1-224.4,182.1-236.4c9.6-3.7,17.1-5.6,22.6-5.9
		C4261.6,3858,4262.4,3858,4263.2,3858.1L4263.2,3858.1z M4294.2,4438.6c-7.6,23.8,21.6,80.9,31,109.4
		c11.7,86.1,60.7,143.1,126.5,174.7l149.3,0.7c161.1,15.7,187.1,98.7,187.1,98.7c-93.7-24.5-224.6-47.6-231.9,21
		c-27.9-33.2-77.3,5.5-99.8,3.7c-10.7,13.5-82.5,33.4-84.9,46.7c155.5,20.5,196.3,93.9,289,166.6c54.2,21.6,128.5,50.4,139.2,110.3
		c-78-54.9-156.5-46.7-239.5-85.6c-15.5,37.3,58.2,53,76.2,83.7c93.1,83.2,190.9,139.9,212.1,257.2c31.6,17.3,32.8,48.7,31.1,80.3
		c3.6,4.6-29.6,220.1-26.5,224.9c-18.4,19.1-33.8-131.1-101.8,24.7c-98,59.9,61.8-181.2,41.3-255.8c-20.9-75.9-29.1-92.8-45.8-89.5
		c13.3-2.5,8.4,41-3.8,102.5c0,0-77.6,167-132.4,221.8c-54.9,54.8-94.3,85.4-128,95.3c-63.7,18.6-27.6-13.4,13.5-91.8
		c47.5-66.2,174.4-250,165.5-392.1c-67.9-163.8-96.7,135.9-192.4,302.3c-37.3,72.7-69.9,175.6-148.1,272.1
		c-94.6,105.3,10.8-151.6,39.7-215.1c24.7-60.6,59.6-155.8,59.6-155.8l-66.8,20.8c39.1-82.8,68.5-68,110.9-166.2
		c69.3-160.6-30.2-384.9-97.8-435l25.6,101.3l25.9,182.2c0,0-15.5,121.7-30.2,55.3c-42.6-192.3-140.4-254.1-140.4-254.1
		c-249.6-83.9,133.2,88.3,43.1,289.6c-27-39.2-64.7-67.9-63.5-77.9c-86.2-46.7-104.1-68.9-348.8-106.4c-32.8,24.8,10.5,13.8,17,37.2
		c26,17.4,69.3,47.3,69.3,47.3c61.6-7.5,49.9,55.9,84.6,80.8c35.2,40.7,97.8,59.4,119.4,108.4c42.9,19.4,103.1-27.4,141.9,31.5
		c9.6,33.8-67.2,10.4-67.2,10.4c-12.3,47.7-55.7,91.3-28.4,145.4c-4.8,21.2,26.1,20.1,29.4,35.7c9.4,8,5.8,46.2-15.9,66.1
		c-2.1,3.6,9.4,133.3,5.1,135.5l-6,37.6c-3.9,4.2-14.6,29.8-17.7,34.3c-21.6,1.2-65.7-79.6-87.4-78.8c-9.9-6.6-20.5-64-27.1-67.9
		l-22.2-28.7c-27.5,112.6,35.3,200.2,36.6,206.2c-29.3,0.7-109.9,0-101.5-154.6c-0.5-0.7-17.4-81.7-17.9-82.5
		c0,0-14.7-94-47.1-132.2c-35.5-45.9-104.2-77.4-125.9-131.7c66.8-18.2,194.6,89.9,192.1,97.8c44.2,53.5,99.5,103.9,149.1,151.9
		c3-3.1,6.1-6.1,9.2-9c8.8-15-20.5-69.3-31.6-63.6c-20.6-25.5,22.5-76.9,30.2-95.6c-17.5-91.3-124.3-89.9-164-172.3
		c-70.5-78.8-164-99.5-258.9-153.7c0,0-410-162.7-156.9-146c50.5,3.4,121.7,62.5,164.5,48.8c110.9-35.6,188.2,4,216.3-10.4
		c53.6,3.2,92.3,62.2,141.8,31.4c2.2-15.8-1.4-36.6-21-35.9c-28.4-6.8-193.2-108.9-169-138.8c0,0,206.4,52.9,244.3,21.7
		c-14.2,0.4-177.2-140.7-138.3-215c38.3,86,128.5,97.2,128.5,97.2c59,12.4,116.9-5.5,127.5-24.3c0,0,42.8-51,48.3-53.9
		c-33.7,3.9-108.3-195.9-79.7-259.9C4254.1,4495.2,4258.1,4450.4,4294.2,4438.6L4294.2,4438.6z"/>
	<path id="path11" class="st0" d="M3468.3,2498.7c-59.2,10.4-165.4,111.6-155.1,158.3c37,21.2,106-12.1,114.5,44.9
		c47.3,12.6,60.2,73.6,111.4,73.8c31.2-19.6,84.1-27.7,93.4-67c-5.1-79.8-24.9-92.8-53.1-163.5l-25.1-21.4
		c-6.1-1.7-35.1-18.9-51.4-22.4L3468.3,2498.7z M3487.3,2558.6c35.1,0.3,65.2,22.4,56.8,61.1c-8.1,37.4-83-1.7-106.3-17.3l-26-2.6
		C3429.6,2571.2,3460,2558.3,3487.3,2558.6z"/>
	<path id="path23" class="st1" d="M2220.2,1343.3c0.9,0.7,1.5,1.8,2.2,2.7C2223.9,1342.6,2224.2,1340.8,2220.2,1343.3z"/>
	<g id="g41" transform="matrix(9.77032,0,0,9.77032,-2728.09,-1966.99)">
		<path id="path39" class="st0" d="M587.3,556.6c5.1,4.1,10,8.7,12.8,13.7c1.3,2.3,7.8,11.2,8.7,20.3c0.4,3.6-7.7-7.2-8.1-8.8
			c-1-3.9-3.9-6.7-7.1-9.9c-3.1-3.2-18.2-10.1-6.7-15.2"/>
	</g>
	<g id="g45" transform="matrix(9.77032,0,0,9.77032,-2728.09,-1966.99)">
		<path id="path43" class="st0" d="M532.7,556.9c-4.2,6.1-6.9,8.9-10.7,26.7c-0.7,3.3,1,3.3,2.4,6.4c6-1.9,5-12.9,6.9-17.8
			c1.2-2.9,2.9-5.3,3.8-8.4c0.4-1.3,1.8-2.4,0.6-3.6L532.7,556.9z"/>
	</g>
	<g id="g49" transform="matrix(9.77032,0,0,9.77032,-2728.09,-1966.99)">
		<path id="path47" class="st0" d="M536.3,612.7c0.7,6.1-1,7.4-0.8,13.4c0.2,4.6,2.6,11.2,4.1,15.5c3.1,8.8,10,14,17.4,14.4
			c1.7,0.1,9.2-1.5,6.4-5.2c-0.7-0.9-3.3-0.6-4.2-0.9c-1.3-0.5-2.6-1.6-4-2c-3.1-1.1-5-1.2-7.4-4.3c-2.4-3.2-3.5-6.5-4.9-10.3
			c-1.2-3.2-1.9-5.6-2.4-9.2c-0.6-3.9,0-5.2,0.7-8.9c0.5-2.2-0.4-12.3-3.2-7.6L536.3,612.7z"/>
	</g>
	<g id="g53" transform="matrix(9.77032,0,0,9.77032,-2728.09,-1966.99)">
		<path id="path51" class="st0" d="M550,607.3c-3,7.8-2.9,12.4-1,20.7c1,4.5,4.6,12.7,8.3,15.8c7.5,6.2,5.7-8.8,4.3-12.4
			c-1.7-4.5-8.5-17-5.7-21.5c3.3,4.3,3.7,10.6,5.9,15.5c0.9,2,2.6,6.2,4.9,7c2.9,1.1,4.6-1.4,4.4-4.1c-0.2-2.6-3.2-6.5-4.2-9.2
			c-1.1-2.7-2.1-5.5-3.4-8.1c-1.6-3.3-9.3-13.8-12.3-7.2L550,607.3z"/>
	</g>
	<path id="path55" class="st0" d="M2707.2,3088.6c-84.5-0.1-166.8,39.4-223.4,104.1c-42.8,49-0.5,175.2,47.4,216.8
		c23.7,20.5,56.8,28,72.9,51.1c0,0,90.5,40.1,220.3,27.2c31.7-3.2,64.2-17.2,90.6-58.9c5.7-10.8,34.1-56.7,30.5-66.6
		c-41.7,41.2-99.9,82.5-143.7,70.3c-22.9-6.3-36.5-5.4-18.5-31.3c7.1-1.1,15.2-0.4,22.1,1.1c13.1-2.5,26.7-2.5,40.9-3.9
		c37.8-3.6,55-36,85.9-62.4c21.2-18.2,36.8-42,54.8-61.6c0.9-19.9-0.6-40-5.4-59.9c-20.9-86.8-176.7-120.2-257.3-125.5
		C2718.5,3088.8,2712.8,3088.6,2707.2,3088.6L2707.2,3088.6z M2660.6,3149.4c7,0,14,0,20.9,0.3c43.4,1.6,87.3,12.3,129.3,23.6
		c31.2,8.4,72.9,22.4,79.2,57.4c0.5,2.8,2.8,5.5,3.4,8.3c-39.1,3.4-73.5-14.7-111.7-23c-23.5-5.1-40.8,6-63.3,3.9
		c-17.5-1.7-33.6-14.4-49.8-14l6,1.2c-29.1-5.8-49.9-10.6-72.8-11.7c-12.2-0.6-47.3,4-50.6-12.4c-1.3-6.1,9.2-18.2,13.5-22
		c10.1-9.1,19.8-7.3,33.1-8.4C2617.8,3150.9,2639.5,3149.5,2660.6,3149.4L2660.6,3149.4z M2575.9,3228.6c41-1,87.2,18.5,66.1,67.7
		l-27.1,6c-14.4,1.2-28.9,1.5-41.1-3.1c-12.6-4.8-30.2-6.9-37.8-13.6c-15.1-13.2-6.2-10.9-12.2-21.4
		C2515.3,3242.6,2544,3229.4,2575.9,3228.6L2575.9,3228.6z M2779.5,3254.3c35.8,0.1,66.9,14.9,57.2,55.2l-3.2,10.9
		c-14,3.5-39.4,13-52.1,10.4c-13.3-2.8-32.9-3-41.5-8.4c-17.2-10.7-33.3-6.7-44.6-18.5C2679.7,3278.4,2733.5,3254.2,2779.5,3254.3
		L2779.5,3254.3z"/>
	<g id="g61" transform="matrix(9.77032,0,0,9.77032,-2728.09,-1966.99)">
		<path id="path59" class="st0" d="M552,577.8c-1.5,5.5-1,10.3-7,11.3c-2.4,0.4-5.5,0.8-7.2-0.5c-8.9-6.9-16.8,10.5,12.9,8.6
			c3.7-0.2,7.2-2.2,10.3-1.2c6.3,1.9,10.6,1.5,16.3,1.9c5.7,0.4,11.3,0.6,14.4-4.4c2.5-4,2-6.8-3-4.5c-5,2.3-7.6,1.7-10.6,1.5
			c-7.5-0.5-6.8-0.7-10.1-1.5c-0.6-0.1-6.9,1.6-8.1-11C559.1,570.6,553.3,572.9,552,577.8z"/>
	</g>
	<path id="path75" class="st0" d="M2635.9,2478.3c-13.5-0.1-22.4,5.1-22.4,5.1s-74.1-4.9-105.6,49.7
		c-30.8,53.3-72.3,157.1-72.3,157.1c108.7,13.4,233-52.1,348.7-18.7c-11.8-66.3-52-88-86.6-145.3l-12.3-21.2
		C2667.3,2483.8,2649.3,2478.4,2635.9,2478.3z M2581,2519.7c3.8,0,7.9,0.2,12.5,0.9c20.3,2.9,52.1,27.9,63.3,43.7l0.1,4.1
		c5.5,5.9,12.2,4.7,8.7,16.1c-41.3,12.1-73.7,18.6-135,0.8C2544.2,2552.3,2544.5,2520.1,2581,2519.7L2581,2519.7z"/>
	<g id="g117" transform="matrix(9.77032,0,0,9.77032,-2728.09,-1966.99)">
		<path id="path115" class="st0" d="M621.9,646.3c2.4-4.9,2.9-7.8,3.7-12.9c0.7-4.6,2.8-9.1,2.4-13.8c-0.5-5.8-4.9-16.2-12.1-16.3
			c-0.6,2.8-2.1,9.7-6.4,8.8c-0.7-2.5-1.2-5.5-3.3-7.2c-3.3,2.4,0.3,12.9-2.6,10.9c-2.6-5.8-5.1-8.2-7.8-10.1
			c-1.2,2.4-2.1,4.1-5.6,2.8c-3.8-1.4-3.9-6.8-7.1-3.3c-0.8,2.5-0.9,4.7-1.3,7.3c-1.4-3-5.4-13.1-9.9-6.5l1.1,3.6
			c1.7,2.1,1.3,2.6,2.4,5.2c1.6,3.7,2.5,6.2,2.7,10.3c0.3,4.3,1.6,9.2,1.2,13.6c-0.2,2.9-1.5,5.3-1,8.4c5.8-1.2,8.1-11.4,8.9-16.1
			c1.1-6.3,0.5-12.9-2.1-18.7c4.2,3.3,5.8,10.6,6.2,15.4c0.4,5.4-3.6,10.4-3.5,15.5c4.1-1.1,6.6-9.4,7.4-12.8
			c1.3-5.9,1.3-11.7-0.7-17.5c3.2-3.3,5.1,6.3,5.5,8.8c2,12.7-5.8,24.4-2.3,24c7.9-9.1,6.6-17.8,8.7-25.2c3.1,2.1,0.8,10.6,0.5,13.9
			c-0.7,7.3-3.7,16-7,22.6c5.6,0.4,10.7-14.9,11.9-19.2c1.4-4.9,0.5-9.9,1.2-14.8c0.5-3.6,0.5-9.5,2.9-12.4c1.4,4.3,3.5,6.3,3.8,11
			c0.2,3.3,0.7,7.1,0.4,10.4c-0.5,5.4-4.2,12-7.2,16.6c-4,6.1-8.3,13.3-14.2,17.5c-0.4,0.3-0.9,0.6-1.4,0.9
			c-10.6,3.1-19,9.4-31.3,6.8c0.9-3.8,5.9-9.7,2.3-13.6c-2.9,6.3-5.6,10.7-12.5,13.9c0.9-5,1.6-9.5,1.5-14.6
			c-2.6,3.4-4.1,7.7-6.6,10.9c-0.2-5.4-10.5-17.4-17-16.3c1.4,3.1,2.9,7.2,3,10.5c-3.3-0.7-9.2-0.1-11.6,2.3
			c3.9,0,15.5,1.9,17.5,4.8c1.8,2.5,2.2,5.6,3.1,8.5c3.6,10.4,13.2,20.7,26.5,18.5c-2.9-2.4-8.4-4.4-10.7-7.2
			c-2-2.5-1.5-5.3-2.4-8.4c2.4,2.5,9.8,5.2,13.1,5c-1.9-1.8-3.8-3.2-5.3-5.2c9.1,2.8,16.9,5.7,23.9,12.4c-0.2-3.9-5.8-9.1-8.2-12.2
			c8.6,2.3,19,3.6,24.4,10.9c0.5-5.2-6-9.9-8.6-14c9.7,2.5,15.2-1.5,22.4-6.7c-7.9,3.9-17.1,2.8-26.7,0.1c0.1-0.1,0.2-0.1,0.3-0.2
			C601.1,669,615.2,659.8,621.9,646.3L621.9,646.3z"/>
	</g>
</g>
</svg>
