<?xml version="1.0" encoding="utf-8"?>
<!-- Generator: Adobe Illustrator 25.2.3, SVG Export Plug-In . SVG Version: 6.00 Build 0)  -->
<svg version="1.1" id="Layer_1" xmlns="http://www.w3.org/2000/svg" xmlns:xlink="http://www.w3.org/1999/xlink" x="0px" y="0px"
	 viewBox="0 0 595.3 841.9" style="enable-background:new 0 0 595.3 841.9;" xml:space="preserve">
<style type="text/css">
	.st0{fill:#1E1E1C;}
	.st1{fill:#FFFFFF;}
</style>
<g>
	<g transform="matrix(10.8853,0,0,10.8853,150.356,188.451)">
		<path class="st0" d="M33.8,35.8c-0.8-0.6-1.3-1.5-1.9-2.2c0.4-0.1,0.7,0.1,1,0.3c-0.2-0.4-0.5-0.7-0.7-1.1
			c-0.1-0.4-0.1-0.8-0.2-1.2c-0.2-0.7-1.1-1.2-1.3-1.9c0.1,0,0.3,0.1,0.4,0.1c0.2-0.3,0-0.7-0.2-0.9c0.3,0,0.6,0.1,0.9,0.2
			c0-0.7-0.5-0.9-0.9-1.4c0.4-0.2,0.8,0,0.7-0.4c0-0.2-0.7-0.5-0.9-0.6c-0.2-0.1-0.5-0.2-0.5-0.4c0-0.2,0.4-0.2,0.4-0.2
			c0-0.2,0.2-0.5-0.3-0.6c0.3-0.3,0.9-0.4,1.3-0.6c-0.4-0.4-1.2-0.3-1.7-0.5c-0.9-0.5-0.3-0.5,0.3-0.7c-0.3-0.2-0.5-0.4-0.9-0.5
			c0.3-0.2,0.7-0.3,1.1-0.2c-0.4-0.6-1.7-0.5-2.3-0.9c0.3-0.1,0.6-0.1,0.9-0.2c-0.5-0.3-1.2-0.5-1.7-0.8c0.3-0.2,0.8-0.3,1-0.2v-0.2
			c-0.5-0.4-1.2-0.4-1.8-0.7c0.2-0.2,0.5-0.3,0.6-0.5c-0.3,0-0.8-0.2-1-0.3c0.2-0.1,0.3-0.2,0.6-0.2c-0.1-0.3-0.5-0.3-0.7-0.6
			c-0.2-0.3-0.2-0.6,0-0.9c-0.3-0.1-0.4-0.2-0.6-0.3c0.7-0.5-1.1-0.9,0-1.3c-0.2-0.3-0.9-0.3-0.4-0.8c-0.1,0-0.3-0.1-0.4-0.1
			c0.1-0.1,0.3-0.3,0.5-0.4c-0.4-0.7,0.9-0.8-0.3-1.3c1.3-0.4-0.1-0.9-0.2-1.8c-0.1-0.9,0.7-1.2,1.1-1.8c0.4-0.7-0.2-1.7-0.4-2.4
			C25,6.4,25.1,5.8,25,5.2c-0.1-0.6-0.6-1-0.7-1.5c-0.1-0.4,0-0.9,0-1.4C24.2,1.5,24,0.8,24,0c-0.1-1-0.5-1.7-1-2.5
			c-0.4-0.8-0.7-1.7-1.3-2.4c-0.5-0.6-0.6-0.9-0.9-1.6c-0.2-0.5-0.7-0.9-1.1-1.3c-1-1-2.3-0.3-3.1,0.6c-0.9,0.9-1.6,2-2.1,3.1
			c-0.3,0.6-0.5,1.2-0.8,1.8c-0.7,1.4-1,3-1.3,4.5c-0.2,1-0.4,2-0.6,3c-0.1,0.5,0,1.1-0.5,1.5C10.7,7,9.8,7.1,9.2,7.3
			c-0.6,0.2-2.5,1.3-3,0.9L5.9,7.9C4.3,5.1,5.6,7,4.3,5.1c-1.3-2-1.5-3.9-2.5-5.6c-1-1.7-2.5-4.3-4.2-4c-1.7,0.3-2.1,3.9-2.1,4.3
			c0,1.3-0.5,2.7-0.6,4.1C-5.2,5-5.2,6.2-5,7.3c0.1,1,0.8,2.3,0.6,3.3c-0.1,0.4-0.2,0.7-0.2,1.2c0.1,1.2,1.3,1.8,1.3,3.1
			c0,0.5-0.2,1-0.3,1.5c-0.1,0.6,0.1,0.9,0.3,1.4c0.2,0.9,0.1,2.1-0.6,2.7c-0.9,0.8-1.6,2-2.5,2.8c-0.3,0.3-0.6,0.8-0.8,1.1
			c-0.3,0.9-0.2,2.5,1.2,2.4c-0.2,1.6,0.8,3.1,2.2,3.9c0.7,0.4,1.8,1.3,2.4,0.2c0.2-0.3,0.3-1.3,0.6-1.4c0.4-0.1,0.7,0.3,0.9,0.5
			c0.2,0.1,0.4,0.3,0.6,0.3c0.2,0,0.4-0.2,0.6-0.1c0.3,0.1,0.5,0.4,0.9,0.5c1.4,0.2,2.3,0,3.4-0.4c0.4-0.1,0.7-0.6,1.1-0.7
			c0.3-0.1,0.5-0.3,0.8-0.4c0.5-0.2,1-0.3,1.5-0.4c1.1-0.2,2.2-0.5,3.3-0.7c0.8-0.2,1.7-0.6,2.5-0.3c1.3,0.5-0.1,1.7-0.5,2.2
			c-0.4,0.5-0.5,1-0.9,1.5c-0.4,0.6-0.8,1.1-1.4,1.6c-0.5,0.4-1,1.1-1.5,1.5c-0.2,0.2-0.7,0.3-1.1,0.4c0.3-0.4,0.8-0.7,1.2-1.1
			c0.6-0.5,1-1,1.6-1.5c0.3-0.3,0.8-0.9,0.9-1.3c0.2-0.3,0.5-1,0.7-1.3c0.2-0.3,1.1-0.9,0.9-1.4c-0.2-0.5-1.4-0.3-2,0
			c-0.6,0.3-1.2,0.2-1.8,0.3c-0.4,0.1-1,0.3-1.4,0.4c-0.2,0-0.6,0.2-0.8,0.2c-0.1,0-0.5,0-0.5,0c-1.1,0-2,1.1-3.2,1.4
			c-1.9,0.6-2.6,0-3.2,0.3C2,31,1.2,30,0.7,30.8c-0.4,0.2-1.4-1.5-1.4-0.3c0,0-0.2,0.7-0.6,1.1c-0.3,0.3,0.5,1.3,1.7,0.4
			C0.6,32,0.8,32.1,1,32.2c-0.6,0.8-0.8,2-1.4,3.1c-0.3,0.5-1.5,2.6-1.5,4.5c0,0.7,0.1,2.1,0.2,2.8c0.1,1,0.3,1.6,1,2.1
			C-0.1,45.1,0,44.9,1,45c0.4,0,0.6,0.1,1.1-0.1c0,0,0.3-0.1,0.3-0.1c0,0,0.4-0.2,0.4-0.2c0.5-0.3,0.6-0.1,1-0.6c0,0.1,0,0.1,0,0.2
			c0.5-0.5,1-0.9,1.4-0.6c0.1,0.1,0.1,0.7,0.2,0.8c0.2,0.3,0.2,0.2,0.4,0.4C6.1,45,6,44.8,6.1,45c0,0.1,0,0.3,0,0.4
			c0,0.2,0,0.5,0,0.7c0.1,0,0.3,0,0.4,0c-0.1,0.3-0.1,1.5,0.4,1.1c0.1,0.4-0.1,0.8,0.1,1.2c0.1,0.2,0.3,0.3,0.4,0.5
			c0.1,0.2-0.1,0.4,0,0.6c0.1,0.2,0.3,0.3,0.5,0.5C8,50.2,7.9,50.6,8,50.7c0,0.1,0.1,0.2,0.1,0.3c0.5-0.3,1.2-0.8,1.6-0.9
			c1-0.4,1.6-1.4,2.6-1.8c0.3-0.1,0.6,0.2,1,0c0.4-0.1,0.8-0.7,1.1-0.9c1-0.6,1.5-0.1,2.6-0.8c1-0.6,1.5-0.7,2.6-0.9
			c1-0.2,2.1-1.6,3-1.5c0.8,0.1,0.3,0.7,0.7,0.8c0.6,0.1,1.3-0.5,1.8-0.8c0.6-0.4,1.2-1.1,1.9-1.5c0.7-0.3,1.2-0.4,2-0.8
			c0.6-0.4,0.9-0.8,1.7-0.9c0.7-0.1,1.6,0.3,1.7-0.8c2.2-0.3-0.1-1.7,0.6-2.4c0.2,0.1,0.4,0,0.6,0.1c0.1-0.1,0.2-0.1,0.4-0.2
			c0.4-0.8,0.1-1.4,0.4-1.6C34.1,36,34,35.9,33.8,35.8z M8.3,34.3c-0.1,0.5-0.4,1.1-1.1,1.3c0,0.3-0.2,0.8-0.2,1.3
			c-0.4,0.7-1.2,1.5-1.3,1c0,0-0.1-0.2-0.1-0.3c0-0.1,0-0.4,0-0.5c0-0.4,0-1,0.2-1.3c0.2-0.6,0.6,0.8,0.7,0.6c0-0.2,0.1-0.6,0.2-0.8
			c0.2-0.4,0.2-2.4,1-1.6c0.3-0.6,0.4-1.9,1.3-1.3c0.2-0.4,0.4-1.4,0.9-1.5c-0.5-0.7,0.5-2.3,1.4-1.7l0.1,0c0.8-0.5,1.2,1.7-0.2,2
			C11.2,32.5,11,33,9.9,33C9.8,34,9.5,34.7,8.3,34.3z"/>
	</g>
	<g transform="matrix(10.8853,0,0,10.8853,150.356,188.451)">
		<path class="st1" d="M-1.3,1.2C-1.7,1.2-2,1-2.4,1c0,0.3,0,0.6,0.1,0.8C-2.4,1.6-2.7,1.5-3,1.5c0,0.2,0.1,0.5,0.2,0.7
			c-0.4-0.2-0.9-0.2-1.4-0.3c0.2,0.5,0.8,0.8,1,1.2C-3.6,3.4-3.8,3.7-4,4.1c0.2-0.1,0.3,0,0.5,0c-0.1,0.3-0.2,0.6-0.2,0.9
			C-3.4,4.9-3.2,5-3,5.2c-0.1,0.1-0.1,0.1-0.2,0.1c0.1,0.3,0,0.5-0.2,0.7c0.5,0,1.3,0,0.7,0.7c0.3,0.1,0.8,0,1,0.2
			c0.2,0.3-0.5,0.5,0.4,0.7C-1.6,8-1.7,8.4-1.7,8.8c-0.2-0.1-0.5-0.1-0.7,0.1c-0.3,0.4,0,0.3,0,0.7c0,0.2,0,0.5,0,0.7
			c0,0.1,0.3,0.6,0.3,0.6c-0.1,0.5-0.8,0.6-0.6,1.2c0,0,0.5,0.2,0.6,0.3c0.1,0.1,0.1,0.5,0.2,0.7c0.6-0.3,0.9-1.2,1.3-1.7
			c0.2-0.3,0.6-0.5,0.8-0.9c0.2-0.4,0.1-0.7,0.3-1c0.3-0.5,1.1-0.8,1.1-1.5c0-0.5-0.5-1.5-0.9-1.8C0.7,6.3,0.6,6.6,0.6,6.8
			C0.5,6.7,0.3,6.6,0.2,6.5c-0.1,0.4,0,1-0.4,1.1c0-0.1-0.1-0.3-0.1-0.4c-0.1,0.2-0.2,0.4-0.3,0.6c-0.2-0.6-0.8-1.1-1-1.7
			c-0.1-0.4-0.1-1.9,0-2.2C-1.3,4-1,4-0.8,3.9c-0.2,0-0.4-0.2-0.5-0.2c0-0.1,0.1-0.1,0.1-0.2C-1.5,3.1-1.8,3-1.9,2.6
			C-1,2.4-1.3,1.9-1.3,1.4L-1.3,1.2z"/>
	</g>
	<g transform="matrix(10.8853,0,0,10.8853,150.356,188.451)">
		<path class="st1" d="M17.4,8.7c0.2-0.1,0.1-0.9-0.1-1.1c-0.3-0.4-0.9-0.3-1.2-0.7c-0.3-0.4-0.2-1.3-0.2-1.8
			c-0.1-0.4-0.5-1.3-0.1-1.6c0.1,0.1,0.3,0.3,0.6,0.4c0.4,0,0.3-0.6,0.6-0.8c0.4-0.3,0.8-0.3,1.1-0.7c0.4-0.5,0.2-1.9,1-2
			c0.2-0.9-0.4-1.8-0.1-2.7c0.2,0.2,0.9,0.7,0.9,1.7C20-0.5,20-0.9,20.3-1.1c0.3,1.4,1.1-0.2,1.4,1.1c0.1,0.4-0.3,0.8-0.2,1.2
			c0,0.4,0.3,0.7,0.4,1.1c0.2,1-0.1,2.1,0,3.1c0.1,0.5,0.3,0.8,0.3,1.3c0,0.5-0.1,1,0.6,0.5c0,0.2,0.1,0.3,0.2,0.5
			c0.4-0.3,0.5-0.9,0.9-1.1c-0.2,0.4-0.4,0.8-0.2,1.3c0.1,0.3,0.7,0.6,0.6,1c-0.1,0.4-1.7,1.9-2,1.9c0-0.4-0.1-0.7,0.2-1.1
			c0,0-0.1,0-0.1-0.1c-0.4,0.1-0.6,0.5-0.9,0.7c0.2-0.4,0.2-1.2-0.3-0.6c-0.9-0.5-0.7-1.1-1-2c-0.6,0.5-0.6,1.4-1.5,1.7
			c0-0.4,0.2-0.6,0.4-0.9c-0.4,0.2-1,0.8-1.4,0.6c-0.1-0.6,0.6-0.9,0.4-1.5C17.9,8,17.7,8.5,17.4,8.7z"/>
	</g>
	<g transform="matrix(10.8853,0,0,10.8853,150.356,188.451)">
		<path class="st1" d="M0.9,10.4c0.1-0.1,0.3-0.3,0.4-0.5C1.9,9.8,2.7,9.2,3.3,9c0.8-0.2,1.5-0.4,2.4-0.4c0-0.3-0.1-0.4-0.4-0.5
			C5.2,8,4.9,8.1,4.8,8.1C4.7,8,4.7,7.7,4.6,7.7c-0.4-0.1-0.5-0.1-0.9,0C3.2,7.7,3.1,7.9,2.9,8c0,0-0.2,0.2-0.2,0.3
			c-0.1,0.1-0.3,0-0.4,0.1C1.9,8.5,1.7,8.7,1.5,8.9C1.2,9.4,0.8,9.8,0.9,10.4L0.9,10.4z"/>
	</g>
	<g transform="matrix(10.8853,0,0,10.8853,150.356,188.451)">
		<path class="st1" d="M11.1,7.9c0.5-0.6,1.4-0.9,2.2-0.8c-0.1,0.1-0.1,0.4-0.1,0.5c0.3,0,0.7,0,1,0c-0.2,0.1-0.4,0.3-0.5,0.5
			c0.4,0,0.9-0.1,1.2,0.2c-0.1,0.1-0.2,0.2-0.4,0.2c0.3,0.1,0.8,0.1,1.2,0.1c-0.2,0.2-0.3,0.4-0.3,0.7c0.3,0,0.6,0,0.9,0.1
			c-0.1,0.1-0.1,0.3-0.2,0.5c0.3,0,0.7,0,1,0.1c-0.1,0.1-0.3,0.2-0.4,0.3c0.4,0,0.9,0.1,1.2,0.4c-1.2,0.2,0.1,0.5,0.1,0.9
			c-0.1,0-0.3,0.2-0.4,0.2c0.3,0.5,1.2,0.7,1.6,1.2c0.3,0.4,0.5,0.7,0.9,1.1c0.7,0.6,1.5,1.2,2.3,1.9c-0.4,1-1.3-0.1-1.9-0.4
			c-0.4-0.2-0.6-0.2-0.9-0.5c-0.5-0.5-0.5-0.5-1.1-0.8c-0.7-0.4-0.5-1.1-1.1-1.6c-0.6-0.5-1.4-0.8-2.1-1c0.3-0.1,0.4-0.3,0.5-0.6
			c-0.4-0.2-1.1-0.3-1.5-0.2c0.3-0.2,0.2-0.3,0.3-0.5c-0.3,0-0.7,0-1,0c0.1-0.1,0.1-0.4,0.2-0.5c-0.4,0-0.9,0-1.3,0
			c-0.1-0.5,0.6-0.7,0.8-1c-0.4-0.1-0.9,0-1.3,0c0-0.3-0.3-0.5-0.5-0.8L11.1,7.9z"/>
	</g>
	<g transform="matrix(10.8853,0,0,10.8853,150.356,188.451)">
		<path class="st1" d="M-2.1,16.4c-0.7,0.3-0.6,1.5,0.3,1.3c0.3-0.1,0.6-0.4,0.7-0.7c0-0.5-0.5-0.1-0.7,0c0,0,0-0.1,0-0.1
			C-1.6,16.6-1.6,16.2-2.1,16.4L-2.1,16.4z"/>
	</g>
	<g transform="matrix(10.8853,0,0,10.8853,150.356,188.451)">
		<path class="st1" d="M-6.8,25.4c0.2,0.3,0.8,0,1.2,0.1c0.1,0.4,0.4,1.2-0.4,0.9C-6.5,26.2-6.6,25.9-6.8,25.4L-6.8,25.4z"/>
	</g>
	<g transform="matrix(10.8853,0,0,10.8853,150.356,188.451)">
		<path class="st1" d="M-3.3,26.3c-0.9-0.2,0.2-1.4,1-0.8c0.4,0.3,0.4,0.5,1,0.5c0.5,0,0.8-0.3,1.2-0.3c-0.1,0.6-1,1-1.6,1
			C-2.3,26.7-2.8,26.5-3.3,26.3z"/>
	</g>
	<g transform="matrix(10.8853,0,0,10.8853,150.356,188.451)">
		<path class="st1" d="M-3,23.2c-0.6,0-1.1-0.2-1.7-0.2c-0.4,0-1.4,0.2-1.2,0.5c0.2,0.2,1.1,0,1.5,0.2c0.6,0.3,1.3,0.4,2.1,0.3
			c0.4-0.1,1.4-0.5,1.2-0.7c-0.4,0-0.7,0.1-1.1,0.1C-2.4,23.3-2.7,23.2-3,23.2z"/>
	</g>
	<g transform="matrix(10.8853,0,0,10.8853,150.356,188.451)">
		<path class="st1" d="M6,32.4c-0.1,0.1-0.3,0.2-0.5,0.3c-0.3,0.2-0.6,0.2-0.9,0.4C4,33.5,3.4,33.8,3,34.4c-0.3,0.4-0.4,0.8-0.5,1.2
			C2.3,36,2.1,36.4,2,36.9c-0.1,0.5-0.1,1-0.1,1.5c-0.1,0.6-0.2,1.1-0.2,1.7c0,0.5,0,1.2,0.1,1.7c0,0.4,0.2,0.7,0.2,1.2
			c0,0.4,0,1.2,0.4,1.2c0.3,0,0.7-0.1,0.9-0.4C3.7,43,3.8,42.9,4,42.1c0.1-0.4,0.5-1,0.6-1.4C4.8,40.3,5,39.9,5,39.4
			c0-0.5,0.3-1.1,0.2-1.7c-0.1-0.4,0-0.7,0.1-1.1c0-0.3,0.1-0.7,0-1c0-0.4,0.1-0.4,0.2-0.8c0.1-0.4,0.2-0.7,0.3-1.1
			C5.9,33.5,6,33.2,6,32.9C6.1,32.7,6,32.6,6,32.4"/>
	</g>
	<g transform="matrix(10.8853,0,0,10.8853,150.356,188.451)">
		<path class="st1" d="M1.8,35.3c-0.7,0.5-1.3,0.6-1.9,1.3C-0.6,37.1-1,38.2-1.2,39c-0.1,0.9,0.1,1.8,0.1,2.6c0,0.8,0.2,1.9,0.8,2.5
			c0.5,0.4,1.2,0.7,1.7,0.2c0.3-0.2-0.2-0.9-0.2-1.3c0-0.6,0-1.1-0.1-1.7c-0.2-1.3,0-2.7,0.3-3.9c0.1-0.4,0.2-0.9,0.4-1.3
			C1.9,35.9,2.3,35.3,1.8,35.3L1.8,35.3z"/>
	</g>
	<g transform="matrix(10.8853,0,0,10.8853,150.356,188.451)">
		<path class="st1" d="M11.2,15.6c0-0.1-0.1-0.2-0.2-0.2c-0.1-0.1-0.3,0.1-0.4,0.1c0,0,0,0-0.1,0c0,0.1,0,0.2-0.2,0.3
			c0,0-0.1,0-0.1,0c-0.2,0.1-0.3,0-0.4,0c-0.3,0-0.5-0.2-0.5-0.4c0-0.2,0.3-0.4,0.6-0.4c0.2,0,0.4,0.1,0.5,0.1c0,0,0.1,0,0.1,0
			c0.1-0.1,0-0.2-0.1-0.3c-0.2-0.2-0.7-0.2-0.9-0.1c-0.2,0-0.3,0.1-0.4,0.2C9,15.1,9,15.2,9,15.4c0,0.1,0,0.3,0,0.4
			c0,0.1,0,0.3,0.1,0.4c0.1,0.1,0.3,0.2,0.4,0.3c0.1,0,0.2,0.1,0.3,0.1c0.2,0,0.4,0,0.6-0.1c0.1,0,0.3-0.1,0.4-0.1
			c0.2-0.1,0.3-0.4,0.4-0.6C11.3,15.7,11.3,15.7,11.2,15.6z"/>
	</g>
	<g transform="matrix(10.8853,0,0,10.8853,150.356,188.451)">
		<path class="st1" d="M31.8,36.8C31.8,36.7,31.8,36.7,31.8,36.8c0-0.1,0.1-0.1,0.1-0.1c0.1-0.6-0.8-0.7-1.2-1.1
			c-0.4-0.5-0.7-1.1-1-1.6c0.5-0.1,0.9,0.3,1.3,0.4c0-0.5,0.1-0.7-0.2-1.1c-0.2-0.2-0.4-0.4-0.6-0.6c-0.1-0.2-0.1-0.5-0.3-0.7
			c0.3-0.1,0.6,0,0.9,0.1c0-0.3-0.1-0.6-0.3-0.9c-0.1-0.2-0.5-0.2-0.6-0.3c-0.1-0.1-0.1-0.4-0.1-0.5c-0.4-0.7-1.3-0.8-1.8-1.4
			c0.3,0,1.4,0.4,1.6,0.1c0.1-0.2-0.5-0.8-0.5-1c-0.1,0-0.2,0.1-0.3,0.1c0-0.1,0.1-0.2,0.1-0.2c-0.2-0.2-0.1-0.2-0.2-0.5
			C28,27,29.3,27,29.5,26.8c-0.5-0.2-1.1-0.4-1.6-0.5c-0.5-0.2-1.5-0.7-1.4-1.3c-0.4-0.1-1-0.1-0.7-0.6c-0.7-0.1-0.7-0.8-0.7-1.3
			c-0.2,0-0.3-0.2-0.5-0.2c0-0.4-0.4-0.3-0.6-0.5c-0.2-0.3-0.3-0.5-0.4-0.9c-0.6-0.1-1.1-0.7-1.7-0.8c-0.2,0.4-0.1,0.9,0.2,1.2
			c0,0-0.6,1.2-0.7,1.3c-0.2,0.1-0.6-0.2-0.7-0.4c-0.2-0.6,0.3-0.2,0.5-0.6c0.1-0.3-0.3-0.8-0.6-1c0.1-0.2,0.1-0.5,0-0.7
			c-0.2,0.1-0.5,0.2-0.8,0.1c0.2-0.5,0-1.3-0.7-1.4c0.2,0,0.3,0,0.5,0c0,0,0-0.1-0.1-0.1c-0.5-0.1-0.9-0.2-1.4-0.4
			c0.2,0,0.3-0.1,0.4-0.1c-0.4-0.2-0.8-0.5-1.3-0.5c0.1,0,0.2-0.1,0.3-0.1c-0.8-0.5-1.5-0.6-2.4-0.1c-0.8,0.4-1.8,1.7-2.7,1.6
			c0-0.8,1.2-1.2,1.2-2c-1.2,0-1.7,0-2.8,0.5c-0.3,0.1-0.6,0.1-1,0.3c-0.3,0.1-0.5,0.5-0.8,0.5c-0.6,0.1-0.9-0.7-1.4-0.2
			c-0.4,0.3,0,1.6-0.8,1c-0.4-0.3-0.4-1.1-0.6-1.4c-0.4-0.5-0.7-0.7-1-1.3c-0.4-0.8,0-0.6,0.2-1.3c0-0.2-0.2-0.3-0.2-0.4
			c0.1-0.2,0.3-0.2,0.4-0.3c0.1-0.2,0.4-0.4,0.5-0.6c0.2-0.2,0.4-0.3,0.6-0.5c0.3-0.3,0.2-0.4,0.4-0.7C7.4,12.2,7.9,12,8.5,12
			c0.4,0,1.8-0.3,1.7,0.3c0.3,0.1,1.3-0.2,1.4,0.2c0.1,0.6-1.1,0.4-1.4,0.4c-0.8,0.1-1.3,0.6-1.6,1.2c-0.1,0-0.1,0.3-0.2,0.4
			c-0.2,0.2-0.2,0.8-0.5,0.9l0.1,0c-0.1,0.1-0.3,0.3-0.4,0.5C7.5,16,7.2,16.1,7,16.3c-0.6,0.4-0.4,1.1,0.4,1c0.8,0,1.5-0.1,2.2,0
			c0.9,0,1.4,0.2,2.2-0.3c0.1-0.1,0.6-0.4,0.5-0.7c-0.1-0.2-0.3,0.1-0.4,0.2c-0.5,0.3-0.6,0.5-1.1,0.5c-0.5,0.1-1,0-1.5,0
			c-0.3,0-0.6-0.1-0.9-0.1c-0.3,0-0.9-0.1-1.2-0.1c0-0.2-0.1-0.3,0.1-0.5c0.1-0.2,0.5-0.3,0.6-0.5c0.3-0.4,0.6-0.6,0.7-1.1
			c0-0.1,0-0.2,0.1-0.3c0.2-0.2,0.3-0.4,0.5-0.5c0.3-0.2,0.7-0.2,1-0.1c0.9,0.2,1.8,0.5,2.4,1.1c0.2,0.3,0.3,0.7,0.8,0.7
			c0.7,0,0.4-0.5,0.3-0.8c0-0.3-0.3-0.7-0.2-1c0.1-0.3,0.5-0.7,0.6-1c-0.1-0.1-0.2-0.3-0.3-0.3c0-0.1,0.1-0.1,0.1-0.1
			c-0.1-0.1-0.2-0.3-0.2-0.4c-0.4-0.3-0.7,0-1.2-0.1c0-0.5-1.6-0.7-2.1-1c0.1-0.1,0.2-0.2,0.2-0.2c-0.7,0-2.7,0.3-2.8-0.4
			c-0.4,0.1-0.9,0.3-1.3,0.6c0-0.1,0-0.1,0-0.1c-0.7,0.2-1,1-1.8,0.8C5,10.7,5.5,10,6.2,9.7c-0.8,0.3-1.4,0.4-2,1.1
			c-0.3,0.4-0.8,1.2-1.4,1c0-0.1,0-0.1,0-0.2c-0.5,0-0.6-0.3-0.4-0.6c-0.2,0.1-0.4,0.2-0.6,0.3c0-0.1,0-0.2,0-0.3
			c-0.3,0-0.5,0.3-0.8,0.4c0-0.1,0-0.2,0.1-0.3c-0.3,0.2-0.4,0.6-0.8,0.6c0-0.1,0-0.1-0.1-0.2c-0.2,0.3-0.3,0.6-0.5,0.8
			c0-0.1,0-0.2,0-0.2C-1.3,12.9-0.1,14,0,14.8c0,0.6-0.4,0.9,0.3,1.4c0.5-0.8,0.5-2,0.9-2.6c0,1-0.1,2-0.7,2.9
			c-0.5,0.7-1.4,1.3-1.4,2.2c0,0,0.1,0,0.1-0.1C-1.4,19.1-2,19.5-2.6,20c-0.8,0.8-1.7,1.7-2.2,2.7c0.3-0.1,0.6-0.5,0.9-0.7
			c0.4-0.3,0.7-0.5,1-0.8c0.3-0.3,0.6-0.5,0.9-0.8c0.3-0.2,0.4-0.5,0.7-0.7c0.5-0.3,1.1-0.6,1.7-0.7c0.4-0.1,1.4,0,1.6-0.5
			c0.1,0,0.3,0,0.4,0.1c0.2,0.2,0,0.2,0.3,0.3c0,0.2,0,0.4-0.1,0.5c0.4,0,0.5,0.4,0.4,0.7c0.1,0,0.2,0,0.3,0C3.7,20.5,4,21,3.5,21.4
			c0.3,0.4,0.7-0.2,1-0.3C4.9,21,5.4,21.2,5.7,21c0,0-0.1-0.1-0.1-0.2c0.3,0,0.5,0,0.7,0.1c0,0.3,0.4,0.6,0.8,0.5
			c0.1,0.2,0.2,0.2,0.4,0.3C7.7,21.7,7.9,21.9,8,22c0.3,0.1,0.9,0.2,0.8,0.7c0.5,0.2,1,0.4,1.5,0.4c0.6,0.1,1.2,0.2,1.9,0.3
			c0.7,0,1.4-0.2,2.1,0c1,0.2,1.6,0.1,2.4-0.1c0.4-0.1,1.2-0.3,1.5-0.1c0.8,0.3,0.3,0.8-0.1,1.1c-0.5,0.4-0.7,0.7-0.2,1.2
			c0.3,0.4,0.8,0.7,1.3,0.7c0,0.7,0.2,0.8-0.4,1.4c-0.5,0.5-0.5,0.7-0.5,1.5c0,0.3,0.1,0.6,0,0.8C18.3,30,18,29.9,18,30
			c-0.2,0.3,0,0.8-0.1,1c-0.2,0.4-0.5,0.2-0.9,0.4c-0.3,0.2-0.7,0.7-0.7,1.1c0,0.4,0.2,0.6,0.1,1.1c-0.1,0.4-0.5,0.7-0.9,1
			c-0.7,0.6-0.6,1.3-1.2,2.1c-0.5,0.7-1.4,0.7-1.7,1.6c-0.1,0.4-0.6,0.7-0.9,0.6c-0.9-0.1-0.9,0.9-1.7,0.9c0-0.1-0.1-0.3-0.1-0.3
			c-0.7,0.1-1.3,0.9-1.8,1.3c-0.7,0.6-0.9,0.5-1,1.6c0,0.2-0.1,0.8-0.4,1.1v0.1c-0.1,0.7,0.8,0.9,1,1.5c0.2,0.5,0.1,1.2,0.1,1.7
			c2.5,0.2,1.6-1.5,2-3c0.2-0.3,0.2-0.7,0.4-1c0.6-0.3,0.6-0.9,1.1-1.3c0.2,0.4,0.3,0.7,0.2,1.1c0.4-0.2,0.5-0.6,0.7-0.9
			c0,0.3,0,0.6-0.1,0.9c-0.3,0.8-0.9,0.9-1.3,1.5c-0.4,0.6-0.2,1.6-0.5,2.3c-0.3,0.7-1.1,1.1-1.2,2c0.1,0.1,0.2,0.2,0.2,0.3
			c1.1-0.2,1.5-1.5,2.5-1.9c0.6-0.3,1.1-0.1,1.6-0.6c0.4-0.3,0.3-0.7,0.9-1c0.4-0.2,0.8,0.2,1.3,0.1c1-0.2,0.6-0.6,1.2-1
			c1-0.7,2.3,0,3.1-0.6c-0.1-0.1-0.1-0.3-0.2-0.5c0.6-0.4,1-0.2,1.5-0.2c0.3,0,0.6,0.2,1,0.1c0.4-0.1,0.5-0.4,0.6-0.5
			c0.7-0.3,2.3-0.1,2.9-0.6c-0.2-0.1-0.4-0.4-0.6-0.5c0.6-0.6,1.3,0.1,1.9-0.1c0.7-0.3,0.6-0.9,1.1-1.3c0.3-0.2,0.6,0.1,0.9,0
			c0.3-0.1,0.5-0.5,0.7-0.7c0.5-0.3,1.2-0.5,1.8-0.8C31.8,37.9,32.2,37.3,31.8,36.8z"/>
	</g>
	<g transform="matrix(10.8853,0,0,10.8853,150.356,188.451)">
		<path class="st0" d="M26.5,33.7c-1.4-0.5-1.5,0.6-2,1.5c-0.4,0.8-1.3,0.9-2,1.6c-1.5,1.4-2.5,2.5-4.1,3.9c0.4,0.7-0.3,0.8-0.7,1.2
			c-0.7,0.6-0.6,0.6-1,1.4c-0.5,1-1.1,1.8-1.7,2.7c0,0,0.2,0.1,0.2,0.2c0.6-0.3,0.9-0.8,1.6-1.1c0.4-0.2,0.9,0,1.2-0.3
			c0.4-0.3,0.1-0.7,0.3-1c0.6-1,2.4-2,2.2-3.2c0.5-0.3,1.1-0.6,1.7-0.7c0.1-1.4,1.1-1.3,2-2.2c-0.1-0.1-0.2-0.3-0.3-0.3
			c0.4-0.3,1.3-0.7,1.8-0.9c0.9-0.3,0.9,0.1,1.6,0.3c0.5,0.2,1.7,0.8,2,0c0.2-0.7-1.2-1.1-1.7-1.2c-0.1-0.6-0.5-1.4-0.5-1.9
			c0-0.9,0.7-0.9-0.1-2c-1.1-1.4-1.9-2-3.7-2.3c0.2,1.4,1,1.4,2,2.2c-0.1,0.1-0.3,0.4-0.3,0.4c0.4,0.3,2.6,1.2,1.2,1.6"/>
	</g>
	<g transform="matrix(10.8853,0,0,10.8853,-76.7103,215.393)">
		<path class="st0" d="M42.9,30.3c0,1-0.2,1.4,0.3,2.3c-0.2-0.2-0.5-0.2-0.8-0.3c0,0.4,0.1,0.9,0.2,1.3c-0.2-0.3-0.5-0.3-0.8-0.5
			c0,0.4-0.2,0.8-0.2,1c-0.3-0.3-0.5-0.3-0.8-0.5c0,0.5-0.1,1-0.1,1.5c-0.2-0.4-0.5-0.4-0.7-0.7c-0.1,0.5-0.3,0.9-0.5,1.3
			c0-0.2-0.1-0.4-0.1-0.6c-0.7,0.2-1.2,1.1-1.9,1.3c0.1-0.2,0.3-0.5,0.4-0.7c-0.7,0-1.4,0.7-2,0.9c0.6-0.7,1.2-1.7,1.7-2.6
			c-0.3,0.1-0.6,0.1-0.9,0.2c0.7-0.6,1.5-1,2.1-1.6c-0.2,0-0.7-0.1-0.8-0.1c0.9,0,1.6-0.6,2.2-1.1c-0.4-0.1-0.8-0.5-1.1-0.6
			c0.5,0.1,1.1,0.3,1.6,0.3c-0.3-0.5-0.5-1.2-0.5-1.8c0.3,0.5,0.5,0.5,0.9,0.7c-0.3-0.8,0.1-1.9,0.3-2.1c0.1,0.3,0,1.2,0.3,1.6
			c0.1-0.2,0.4-0.4,0.5-0.6C42.1,29.3,42.2,30.3,42.9,30.3z"/>
	</g>
</g>
<g>
</g>
<g>
</g>
<g>
</g>
<g>
</g>
<g>
</g>
<g>
</g>
</svg>
