<?xml version="1.0" encoding="utf-8"?>
<!-- Generator: Adobe Illustrator 25.2.3, SVG Export Plug-In . SVG Version: 6.00 Build 0)  -->
<svg version="1.1" id="Layer_1" xmlns:serif="http://www.serif.com/"
	 xmlns="http://www.w3.org/2000/svg" xmlns:xlink="http://www.w3.org/1999/xlink" x="0px" y="0px" viewBox="0 0 595.3 841.9"
	 style="enable-background:new 0 0 595.3 841.9;" xml:space="preserve">
<style type="text/css">
	.st0{fill:none;}
	.st1{fill:#1D1D1B;}
	.st2{fill:#FFFFFF;}
</style>
<rect id="ArtBoard1" y="210.4" class="st0" width="595.3" height="420.9"/>
<g transform="matrix(4.16667,0,0,4.16667,407.258,206.305)">
	<path class="st1" d="M2.8,49.8c0.2,0.3,0.5,0.5,0.7,0.8c0-1.6-1-3.1-1.5-4.6c1.6,0.6,1.9,1.8,2.8,3c-0.3-1.3-0.4-2.7-1.2-3.8
		c-0.4-0.5-1-0.8-1.3-1.4c0.6,0.2,1.3,0,1.8-0.4c-1.5-0.7-3.5-1.5-3.8-3.4c0.1,0,0.2-0.1,0.3-0.2c-0.4-0.3-0.9-0.8-1-1.3
		c0.6-0.2,1-0.3,1.4-0.5c-0.6-0.6-1.5-0.9-1.9-1.6l0,0c0.9-0.1,1.6,0.4,2.5,0.4c-0.4-0.8-1.4-1.2-2-1.9c0.3,0,0.6-0.1,0.9-0.1
		c-0.6-0.2-1.4-0.6-1.9-1.1c0.5-0.2,1.1-0.1,1.5-0.4C0,33.1-0.1,33-0.1,32.9c1.2-0.4,4.5,1.1,3.7-1.4c-0.3-0.8-0.7-1.6-0.9-2.4
		c-0.2-1.1-0.1-1.5-0.8-2.5c0.1,0,0.2,0,0.3,0c-0.3-0.3-0.6-0.7-0.8-1.1c0.1,0,0.2,0,0.3,0c-0.2-0.8-1-1.6-1.3-2.4
		C0,22.2-0.3,21.4-1,20.5C-2.1,19-3.6,18-4.8,16.8c0.1,0,0.3,0,0.4,0c-0.7-0.7-1.7-1-2.5-1.6c0.5,0,0.9,0,1.3-0.1
		c-1.6-0.8-3.5-1.5-5.2-1.9c1-0.4,1.4-0.4,1.9-0.6c0.4-0.8-2.7,0.3-3.5,0.3c1.1-0.9,1.1-1.4,1.3-1.7c-0.5,0.3-1.7,1.1-3.1,1.4
		c0.1-0.1-0.8,0.2-0.8,0.2c-0.2-0.1-0.2-1.5-0.3-1.2l-0.8,0.8c-0.1-0.3-1.3-1.5-1.6-1.2c0,0.1,0.8,1.6,0.8,1.8c-0.6,0-1.4,0-1.8,0.4
		c0.1-0.4,0.1-0.8,0.2-1.2c-1.1,0.9-2.3,0.7-3.6,1c0.3-0.2,0.6-0.4,0.9-0.6c-0.3,0.1,1.8-1.2,1.4-1.2c0.1-0.1-0.8,0.3-0.7,0.2
		c0-0.1-1.3,0.4-1.3,0.3c-0.4-0.1-0.7,0.3-1.1,0.3c0.2-0.2,0.9-1.1,1.1-1.3c-0.2-0.5-1.7,0.4-2.1,0.7c0.2-0.3,0.4-0.6,0.5-1
		c-0.3,0.2,1-1,0.5-0.9c-0.2-0.2-2,0.9-2.1,0.9c-0.7,0.3-1.3,0.5-1.9,0.7c0.1-0.1-0.6,0.2-0.5,0.1c-0.6,0.3-0.4,0.1-1,0.3
		c0-0.2,1.5-1.5,0.7-1.2c-0.1,0-2.1,0.8-2.2,0.8c0,0,0.8-1.3,0.7-1.4c-0.5,0.2-3.7,1.6-3.5,1.8c-0.1-0.1-0.4-0.2-0.9-1.1
		c-0.6,0.5-2.2,0.7-2.4,0.6c0.3-1.9-3.9,2.2-4.5,3c-0.6-0.2,0.1-1.2,0.3-1.4c-0.1,0.1-0.1,0-0.2-0.1c-0.5,0.4-1,0.8-1.5,1.3
		c-0.3-0.4-0.1-0.8,0.2-1c-1.8,0.5-1.3,2.7-2.3,3c-0.3-0.5-0.3-1.4-0.8-1.4c-0.3,1-0.8,2-1.3,2.8c-0.6-0.1-1.5-0.4-1.8-1.3l-0.1-0.2
		c-0.4,0.9-0.5,1.4-0.6,2.4c-0.5-0.6-0.7-0.9-0.9-1.6c-0.3,0.5-0.6,1.2-0.7,1.8c-0.1,0.5,0,0.9-0.2,1.3c-0.6-0.7-2.4-1-3.1-0.1
		c0.5,0.3,1.2,0.6,1.6,1.1c-1.4-0.7-3-0.9-4.3-0.1c1.1,0.5,1.8,0.6,3,1.1c-1.3,0.3-2.3,0.3-3.3,1.2c0.3-0.1,0.6-0.1,0.9,0
		c-0.7,0.8-1.4,1.4-2,2.2c0.6-0.6,1.5-0.8,2.3-0.8c-1.1,0.9-2.5,1.3-3.9,3.3c0.3-0.3,0.7-0.3,1.1-0.3c-1,1-2.5,1.6-3.2,3
		c1.3-1.2,3.7-1.4,5.4-0.9c-0.6,0.1-1.1,0.1-1.6,0.4c0.8,0,1.7,0.3,2.5,0.6c-0.6,0.4-1,0.8-1.4,1.3c0.8-0.3,1.5-0.8,2.4-0.9
		c-0.6,0.8-1.6,1.4-2,2.2c0.4-0.3,1-0.5,1.6-0.5c-0.4,0.4-0.8,0.9-1.4,1.2c0.4,0,0.7,0.2,1.1,0c-0.6,0.4-1.4,0.9-1.7,1.7
		c0.1,0,0.3,0,0.4,0c-0.6,1-1.6,2-2,3.2c-0.1-0.1-0.1-0.1-0.2-0.2c-0.1,0.2-0.3,0.4-0.4,0.6c-0.2-0.2-0.4-0.1-0.6-0.2
		c0,0.2-0.1,0.4,0,0.6c-0.4-0.1-0.9,0-1.2,0.2c0.3,0.2,0.6,0.3,0.9,0.4c-0.5,0.1-1.1,0.5-1.5,1c0.2,0,0.3,0,0.5,0
		c-0.7,0.3-1.4,1-1.9,1.6c0.2,0,0.4,0,0.5,0c-0.6,0.4-0.9,1.2-1.6,1.6c0.2-0.1,0.4-0.1,0.6-0.2c-0.5,0.8-1.2,1.2-1.8,1.8
		c0.1-0.1,0.3-0.1,0.5-0.1c-0.5,1-1.3,1.2-1.5,2.3c0.1-0.1-0.3,1-0.2,0.9c-0.1,0.9,0,0.9-0.2,1.8c0.1-0.3,0,1,0.1,0.8
		c0.1,1,0.2,0.8,0.2,1.8c0.1-0.2,0.3-0.3,0.4-0.5c-0.2,0.7-0.1,1.4,0.2,2.1c0-0.1,0.1-0.2,0.2-0.3c0.2,0.8-0.1,1.9,0.4,2.7
		c0-0.3,0.1-0.4,0-0.7c0.3,0.5,0.4,1.1,0.7,1.6c0.1-0.9-0.2-1.3,0.1-2.2c0.2,0.4,0.2,0.6,0.5,0.9c0.5,0.9,0.3,0.8,0.6,1.5
		c0.2-0.4-0.1-2.3,0.8-1.1c0.4,1.3,0.4,2.5,1.4,3.4c-0.1-0.7-0.3-1.4-0.4-2c-0.1-0.8,0-0.6,0.2-1.4c0.2,1.4,0.5,3.2,1.8,4.1
		c-0.2-0.5,0-1.2,0-1.7c0.2,1.5,1.7,2.4,2.6,3.3c0.1-0.4-1.3-2.2-0.8-3.1c0.3,0.2,0.6,1,0.8,1.2s0.3,1,0.5,1.1
		c0.3,0.6,0.7,1.1,1,1.3c0.2,0.3,0.4,0.6,0.7,0.8c0.1,1.3,0.3,3.5,0.5,4.3c0.3,1.2,0.7,2,1.5,2.9c-0.6-1.5-0.8-2.8-0.8-4.4
		c0.1,1.1,0.5,2.2,0.9,3.3c0.3,1,1,2.4,2.2,2.6c-0.1-0.6-0.9-1.3-1.2-1.9s-0.3-1.2-0.4-1.8c-0.2-1.2-0.4-2.5,0-3.6
		c0.3,1.1,0.8,2.1,0.9,3.2c0.1,0.9,0.3,1.8,0.7,2.7c0.7,1.9,2.1,4.1,3.8,5.2c-0.1-0.6-0.6-1.3-0.9-1.8c-0.2-0.5-0.8-1-1-1.5
		c-0.6-1.2-1.1-2.4-1.4-3.7c0.3,0.2,0.8,0.6,1,0.8c-0.2-1.2-0.4-2.6-0.2-4c0.6-0.4,0.3,2.6,0.6,3.9c0.3,1.4,0.8,3,1.7,4.1
		c0.1-1.1-0.3-2.4-0.5-3.4c-0.1-0.9-0.3-1.7-0.4-2.6c-0.1-0.7-0.1-1.4-0.2-2.1c0-0.4,0-1.1,0-1.7c-0.2,0.7-0.5,1-0.6,1.4
		c-0.2-0.2-0.3-1.4-0.5-1.7c-1,0.1-0.7,3.6-1,3.2c-0.1,0-0.3-1-0.4-1c-0.2-0.7-0.2-1.4-0.2-2.1c-0.2,0.2-0.5,0.4-0.6,0.7
		c-0.1,0.3,0,0.7-0.1,1c-0.3-0.6-0.5-1.1-0.7-1.7c-0.1,0.2-0.2,0.5-0.2,0.7c-0.1-0.4-0.1-0.8-0.3-1.2c-0.5,0.3-0.4,0.7-0.6,1
		c-0.1-0.4-0.2-0.8-0.3-1.1c-0.2,0.2-0.3,0.4-0.4,0.6c-0.2-0.3-0.1-0.6-0.1-0.8c-0.1,0-0.2,0.1-0.2,0.2c-0.1-0.2-0.2-0.4,0-0.5l0,0
		c0.8-0.1,1.1,0.2,1.8,0.3c0.3,0,1.1,0.2,1.4,0.2c0.2,0,1.8-0.2,1.9-0.1c0.3-0.1,0.8-0.3,1.1-0.5c0.1-0.1,0.1-0.1,0.1-0.1
		c0.3,0,0.6-0.1,0.9-0.1c-0.1,0.4-0.2,1.5-0.2,1.5c-0.2,1.2-0.2,2.4,0.1,3.5c0.1,0.5,0.4,1,0.5,1.5c0.2,0.5,0.1,1,0.3,1.5
		c0.2-1,0.3-1.9,0.1-3c-0.1-0.5-0.2-1-0.2-1.5c-0.1-0.6,0.1-1,0.2-1.5c0.1,0.1,0.2,0.7,0.3,0.8c0,0.3,0.1,0.6,0.1,0.8
		c0.1,0.7,0.3,1.4,0.4,2.1c0.1,0.6,0.1,1.2,0,1.8c-0.1,0.7-0.2,1.3-0.4,1.9c-0.1,0.2-0.1,0.4-0.1,0.6c0.5-1.2,1.2-2.2,1.4-3.5
		c0.1-0.8,0-1.4-0.1-2.2c0-0.2-0.1-0.4-0.1-0.6c-0.1-0.5-0.1-1.5,0.4-1.8c0-0.6-0.3-1.4,0.2-1.6c0.6-0.3-0.1-0.4,0.3-0.8
		c0.2,0,0.2,0.3,0.2,0.3c0,0.4,0.4,1.3,0.5,1.6c0,0.3,0.1,0.6,0.1,0.8c0,0.2,0.1,0.4,0.2,0.6c0.1,0.6,0.2,1.2,0.2,1.7
		c0.1,1,0.3,1.9,0.1,2.9c-0.2,1.3-0.7,2.5-1,3.7c0.9-0.6,1.5-2.3,1.8-3.3c0.4-1.1,0.5-3.7,0.5-3.7l0,0c0-0.1,0-0.1,0-0.2l0,0
		c0.2,0.4,0.3,0.9,0.4,1.4c0.4,4.1-2.2,7.6-2.2,7.6c-0.6,0.9-1.2,1.8-1.9,2.5c0.4-0.5,2.5-1.4,3.1-2c0,1-0.1,2-0.5,3
		c0.7-0.6,1.2-1.2,1.7-1.9c0.1,0.3-0.2,2.4-0.4,2.9c0.3-0.4,0.7-0.8,1.1-1.1c0.1,0.2,0.1,0.7,0.1,0.8c-0.1,0.5-0.2,1-0.3,1.5
		c0.2-0.1,1.2-0.1,1.4-0.4c0,0.8,0.4,1.9-0.2,2.7c0.6-0.4,1.2-0.7,1.7-1.3c0,0,0,0,0,0.1c-0.2,0.6-0.4,1.1-0.5,1.6l-0.1,1
		c0.1-0.1,0.2,0.7,0.4,0.6c0.7-0.5,1.7-0.7,1.7,0.1c-0.7,1.4-0.5,3.1-0.6,3.5c0.3-0.3,0.6-0.6,0.9-1l0,0l0,0
		c0.5-0.6,0.9-1.1,1.4-1.6c0.6-0.5,1.2-1.1,1.7-1.7l0,0c-0.7,1.5-0.9,3.8-0.9,5.4c1.1-1.2,1.7-2.9,3-4c-0.6,2-0.4,4-0.3,6
		c0.4-1.7,1.7-3,2.3-4.6c0.2,0.4,0.5,1.6,0.7,1.9c0.4-1.2,1.3-4,2.4-4.6v0.1c0,0,0,0,0.1,0l0,0c0,0.3-0.6,4.4-0.5,5.2
		c1.3-1,3.1-3.2,3.1-3.1c0.3-0.6,0.7-1,1-1.6l0,0c0,1.3-0.5,2.7,0,3.8c0.4-0.4,0.8-1.3,1-1.8c0.2-0.8,0-1.6,0.2-2.4
		c0.5,0.5,0.8,1.3,1.4,1.4c0.6,0.6,1.5,0.8,2.2,1c-0.9-1.1-1.5-2.1-1.9-3.4c0.9,0.6,1.5,1.3,2.6,1.7c0.7,0.3,1.9,0.7,2.6,0.4
		c-1.3-0.3-2-1.3-2.4-2.5c0.6-0.4,0.9-1.1,1.2-1.7c0.1,0,0.3,1.2,0.4,1.2c0,0.6,0.2,1.2,0.3,1.7c0.6-0.9,0.7-3.3,0.8-4.4
		c0.3,0,0.6,0,0.9,0c0.3,0.2,0.7,0.3,1.1,0.3c-0.2-0.1-0.7-1.4-1-1.8l0,0c1,0.6,2.7,1.1,3.8,0.7c-1.1-0.2-1.6-2.8-1.8-3.7
		c-0.1-0.4-0.2-1.6,0-2.4c0.1,0.2,0.4-0.9,0.6-0.9c0.3-0.1,1.2,0.2,1.6,0.3c0.6,0.1,1.3,0.2,1.9,0.3c1,0.1,2.2,0,2.9-0.6
		c-0.7,0-1.5-0.3-2-0.8c0.5-0.2,1-0.2,1.4-0.6c-0.4,0-2.4-2.5-2.2-2.7c0.8,0.7,3.1,1.1,4.2,1c-0.2-0.3-0.7-0.4-1-0.6
		c-0.5-0.4-0.8-1.1-1-1.6c0.9,0,1.8,0.9,2.8,0.8c-0.6-0.7-0.9-1.6-1.4-2.3c0.8,0.1,2.1-0.1,2.8-0.5c-1-0.4-2.1-0.8-2.6-2
		c0.8,0.2,2.1,0.5,2.8-0.2c-0.8-0.4-1.2-2-0.7-2.6h0.1c0.5-0.7,0.7-1.1,0.5-2.1C2.2,60,2.9,60.4,4,60.3c-0.5-1.4-1.6-2.9-1.1-4.5
		c0.5,0.5,1.2,0.7,1.8,0.7C3.7,53.8,2.6,51.8,2.8,49.8z"/>
	<path class="st2" d="M-19.4,41.1c0.1-3.3-0.9-6.3-3.7-8.2c0.1,0.9,0.8,2.3,1.3,3.2c-0.5-0.7-1.1-1.6-1.8-2.1c0.1,0.5,0.3,1,0.4,1.5
		c-0.6-0.7-1.3-1.4-1.9-2c0.2,1.6,0.7,3.5,1.4,4.9c-0.7-0.8-0.9-1.9-1.5-2.8c-0.6-0.9-1.6-1.1-2.6-1.6c-0.8-0.5-1.2-1.3-1.7-2.1
		c-0.7-1.2-1.6-2.1-2.4-3.3c-0.2,1,0,2.1-0.2,3.2c0.1-0.6-0.6-2.3-0.9-2.9c-0.1,0.6-0.3,1.2-0.6,1.8c-0.1-0.2-0.2-0.4-0.2-0.6
		c-0.4,0.6-0.9,1-1.3,1.5c0.2,0,0.5,0,0.7,0c-0.6,0.7-0.9,1.2-0.3,2.1c-0.4-0.3-0.5-0.8-0.9-1.1c-0.1,0.3-0.1,0.7-0.1,1.1
		c-0.3-0.5-0.7-1-1.3-1.2c-0.1,0.4,0.1,0.9,0.5,1.2c-1.3-0.1-2.3-0.7-3.5-1.1c-1.5-0.4-3.3,0.2-4.6,0.8c0.3,0,0.7,0,1-0.1
		c-0.8,0.9-2.9,1.3-4,1.8c0.7-0.1,1.5-0.4,2.2-0.3c-0.9,0.6-1.9,1-2.9,1.6c-0.8,0.5-1.6,1.2-2.4,1.5c0.8-0.3,1.8-0.2,2.6-0.6
		c-0.8,1-2.3,1.4-2.9,2.4c0.4,0.1,1.2,0.2,1.7,0c-0.9,0.6-1.9,1-2.8,1.7c-0.7,0.5-1.4,1-2.1,1.5c0.2-0.1,0.3-0.3,0.4-0.5
		c-0.3,0-0.7,0-0.9,0.2c0.7-0.6,1.5-0.9,2.2-1.5c-0.6,0.2-1.5,0.2-1.9,0.8c0.1-0.1,0.1-0.2,0.2-0.3c0.2-0.2,0.5-0.3,0.6-0.6
		c-0.1,0-0.3,0.1-0.4,0.1c0-0.1,0.1-0.3,0.1-0.4c-0.3,0.2-0.5,0.4-0.7,0.5c-0.4,0.1-0.7,0.2-1,0.5l0,0c0.3-0.4,0.6-0.7,1-1.1
		c0.4-0.3,0.8-0.6,1.2-0.9c0.5-0.3,1.5-0.7,1.7-1.3c-0.6,0.1-1.2,0.4-1.8,0.7c0.6-0.5,1.1-1.4,1.5-2c0.3-0.5,0.7-1,1-1.5
		s0.8-1.3,1-1.9c-0.7,0.6-1.5,1.2-2.1,1.9c-0.3,0.4-0.7,0.8-0.9,1.3c-0.1,0.2-0.2,0.5-0.3,0.7c0.4-0.6,0.4-1.9,0.6-2.6
		c-0.3,0.5-0.5,1.1-0.8,1.6c-0.4,0.7-0.8,1.3-1,2.1c0.1-0.9,0.5-1.9,0.3-2.8c-0.4,0.5-0.5,1.2-1,1.6c-0.1-0.2-0.1-0.5-0.2-0.8
		c-0.1,0.3-0.1,0.7-0.1,1c-0.1,0.5-0.4,1-0.4,1.5c-0.2-0.8-0.7-1.4-1-2.1c-0.3,0.9,0.4,2,0,3c-0.3-0.5-0.6-0.9-0.9-1.3
		c-0.1,0.6,0.1,1.4,0.2,2.1c-0.4-0.5-0.8-1-1.1-1.5c0.2,0.7,0.5,1.3,0.4,2c-0.2-0.2-0.5-0.4-0.7-0.5c0,0.2,0.1,0.4,0.2,0.5
		c-0.4-0.3-1.3-0.2-1.8-0.2c0.5,0.1,1.2,0.2,1.4,0.7l0,0c-0.1,0-0.1-0.1-0.2-0.1c0,0.1,0,0.1,0,0.2c-0.8,0-1.8,0.1-2.4,0.6
		c0.3,0.1,0.7-0.1,1-0.1s0.7,0,1,0c-0.8,0.3-2,0.5-2.6,1.1c0.6-0.1,1.1-0.2,1.6-0.3c-0.2,0.1-0.4,0.2-0.8,0.4
		c0.3,0.1,0.6,0.2,0.8,0.5c-0.6,0-1.7,0.1-2.1,0.7c0.3-0.1,0.7-0.1,0.9,0.1c-0.5,0.1-1.9,0.5-2.1,1c0.3,0,0.6-0.1,0.5,0.2
		c-0.4,0.3-0.6,0.3-0.8,0.5c-0.3,0.3-0.6,0.5-0.8,1.2c0.3,0,0.3-0.1,0,0.4c-0.3,0.7-0.3,0.8-0.2,1.7c0.1,0,0.2,0,0.3,0
		c-0.1,0.5-0.1,0.8-0.1,1.3c0.1,0,0.3,0,0.4-0.1c-0.1,0.6-0.2,1-0.1,1.6c0.2-0.3,0.4-0.7,0.6-1l-0.1,0.2c0,0.6-0.1,1-0.1,1.6
		c0.1,0,0.2-0.1,0.2-0.1c0,0.3-0.1,0.6-0.1,0.9c0.3-0.2,0.4-1.8,0.7-2c0,0.4-0.1,2.5,0.1,2.9c0.3-0.4,0.4-1.6,0.8-1.9
		c0.1,0.3,0.2,2,0.7,1.5c0.2,0.4,0.1,0.9,0.2,1.2c0.2-0.1,0.4-0.3,0.6-0.4c0.1,0.3,0.1,0.8,0.3,1c0.1-0.2,0.2-0.4,0.3-0.6
		c0.1,0.2,0.3,0.6,0.4,0.9c0.1-0.5,0.5-1.1,0.7-1.5c0,0.6,0.1,1.1,0.4,1.6c0.1-0.5,0.3-1,0.6-1.3c0.4,0.7,0.8,2.1,1.4,2.6
		c-0.6-2.5-0.4-3.8-0.2-4.2c0.4,0.2,1.2,1,1.4,2c0.1-0.2,0.1-0.4,0.2-0.7c0.4,0.7,0.8,1.6,1.3,2.1c0-0.2,0-0.5-0.1-0.7
		c0.3,0.5,0.8,1,1.1,1.5c0-0.1-0.5-2.6-0.6-3.1c0.5,0.8,1.3,1.5,1.5,2.4c0-1.2-0.2-2.6-0.5-3.3c0.3,0.3,0.8,1,1.1,1.6l0,0l0,0
		c0.2,0.5,0.4,0.9,0.5,1.2v0.1c0.1,0.3,0.1,0.5,0.2,0.8c0.1-0.4,0-1.9,0-2.2c0.1,0.1,0.7,1.2,0.9,1.5c-0.1-0.5-0.1-1-0.1-1.5
		c0.4,0.7,0.8,1.3,1.1,2.1c0-0.1,0.2-0.3,0.2-0.4c0.1,0.1,0.2-0.7,0.2-1.2c0.2,0.6,0.3,1.4,0.4,2.1c0.1,0.3,0.2,0.6,0.3,0.9
		c0.1-0.2,0.1-0.3,0.1-0.5c0-0.4,0.1-0.8,0.2-1.3c0,0,0.1-0.6,0.1-1c0.2,0.4,0.8,1.9,0.9,2.3c0,0.1,0.1,0.2,0.1,0.3
		c0.1-0.2,0.1-0.3,0.1-0.5c-0.1-0.7-0.4-1.5-0.6-2.7c0.2,0.5,0.5,1,0.8,1.5c0-0.4,0-2.3-0.1-3c0.4,0.9,0.8,1.9,1.1,2.8
		c0-0.2,0-0.5,0-0.7c0.2,0.4,0.5,0.8,0.7,1.3c0.1-0.7,0.1-1.6,0.1-2c0.2,0.5,0.4,2.3,0.6,2.8c0.1,0.6,0.2,1.1,0.1,1.7
		C-44,60.7-44,61-44,61.3c0.3-0.7,0.6-1.3,0.5-2.8c0-1-0.3-2.3-0.2-3.3c0.1,0.4,0.3,0.9,0.6,1.4c-0.1-0.7-0.1-1.3-0.1-2
		c0.1,0.2,0.2,0.6,0.4,0.9c0.1,0.1,0.1,0.2,0.2,0.3c-0.1-0.4,0-0.8,0-1.3c0-0.6-0.1-1.1-0.1-1.6c0.7,1.4,1.2,2.5,1.3,3.9
		c0.1,1,0,2.3-0.1,3.1c0.4-1,0.7-1.9,0.8-3c0.1,0.4,0.2,0.8,0.2,1.2c0.2-0.6,0.5-1.1,0.5-1.8c0-0.6-0.1-1.8-0.3-2.4
		c1.3,0.7,1.1,4.7,0.6,5.7v0.1c0.6-0.7,1.4-1.4,1.6-2.4c0.4-1.3-0.2-2.9-0.1-4.2c0.2,1,0.6,1.9,0.7,2.9c0.1,1-0.1,2.1,0,3.1
		c0.7-0.9,1-2.6,1-3.8c0-1.1-0.1-2.2-0.3-3.3c0.2,0.3,0.4,0.5,0.6,0.8c0.1-0.5,0-0.9-0.2-1.4c1.1,1.8,1.6,3.6,1.1,5.7
		c-0.2,1-0.7,1.9-1.1,2.8c-0.1,0.3-0.2,0.6-0.3,0.9c0.2-0.3,0.5-0.5,0.7-0.8c0,0.2-0.1,0.6-0.1,0.8c1.4-1.5,1.7-3.1,2.2-5
		c0,0.3,0.1,0.5,0.2,0.7c0.9-1.3,0-2.9,0.5-4.3c0.1,0.9,0.6,2.2,0.5,3.5c-0.1,1.6-1.4,3.5-1.6,5c0.1-0.1,0.4-0.2,0.5-0.3
		c-0.2,1.1-0.9,2.1-1.4,3.1c-0.4,0.7-0.7,1.6-1.2,2.2c0.8-1.1,1.5-2.2,2.3-3.2c0,0.4-0.1,0.8-0.3,1.2c0.7-1.2,1.7-2.3,2.4-3.5
		c1.1-1.8,1.9-3.8,2.6-5.7c0,1,0.1,2,0.1,3c0-0.7,0.4-1.5,0.5-2.2c0.2-0.9,0-1.6,0-2.4c0.2,0.3,0.2,0.7,0.4,1c0-0.2,0.1-0.3,0.2-0.4
		c0.7,0.7,0,2.7-0.2,3.5c-0.2,1-0.2,1.9-0.2,2.9c0.1,1.8,0.8,4.1,2.3,5.2c-0.6-1.4-2.1-3.1-1.9-4.8c1.4,2,2.6,6.4,5.6,6.5
		c-0.4-0.7-1.3-1.3-1.9-2c-0.7-0.9-1.3-1.9-1.5-3.1c0.7,0.5,1,1.2,1.6,1.7c0.1-0.5-0.5-1.1-0.8-1.6c-0.3-0.7-0.4-1.4-0.7-2.1
		c0.5,0.6,1.3,1.8,2.1,2c-0.6-1.3-3-4.7-1.8-6.1c0.1,0.3,0.7,1.5,0.8,1.9c0.1-0.8,0.1-1.6,0.4-2.3c0.3-0.6,0.5-0.7,0.7-1.3
		c0.5-1.6,0.6-2.9,0.3-4.7c0.7-0.2,1.2,2.4,1.4,3.2c1.3-2,0.1-4.9-0.3-7c0.4,0.6,0.7,1.2,1.3,1.7c0-1.3-0.3-2.4-0.2-3.6
		c0.1-0.9,0.1-1.9-0.2-2.9c0.5,0.6,0.9,1.3,1.3,2c-0.2-0.8-0.1-1.9-0.1-2.7C-19.8,40.3-19.6,40.7-19.4,41.1z"/>
	<path class="st2" d="M-36.5,26c0.3,0.1,0.6,0.4,0.8,0.5l0.1,0.6c0.3,0.4-0.2,0.8,0,1.1c-0.1,0.2-0.2,0.3-0.4,0.4
		c-0.1,0.2-0.2,0.2-0.3,0.3c-0.3,0.1-0.5,0.3-0.6,0.3c-0.1,0.2-0.5,0.2-0.8,0.1s-0.8,0-0.8-0.4c-0.5-0.3-0.7-0.4-0.7-0.9
		s0.2-0.8,0.2-1.2c0.1,0.1,0.5,0.1,0.5,0.3c-0.2,0.1-0.2,0.4-0.2,0.7c0.3,0.6,0.8,0.6,1.4,0.9c0.4,0,1.1-0.2,1.2-0.6
		c0.1-0.4,0.1-0.7,0.1-0.7c0-0.3-0.1-0.2-0.4-0.4c-0.3,0.2-0.6,0.6-1,0.5c-0.2-0.4,0.2-0.8,0.4-1c0-0.3-0.6-0.2-1.2,0.2l-0.5-0.1
		c-0.1,0,0.7-0.4,0.7-0.5C-37.7,25.6-37,26.1-36.5,26z"/>
	<path class="st2" d="M-54.5,61.2c-0.1-0.3-0.1-0.8-0.1-1.1c0-0.4,0.3-0.7,0.5-1.1c0.3,0.3,0.5,0.8,0.4,1.2c0.2,0.1,0.6,0.1,0.8,0.3
		c0.2,0.1,0.2,0.3,0.3,0.5c0.3-0.1,0.2-0.3,0.5-0.3c0.1,0,0.4,0,0.5,0.1s0,0.5,0.2,0.5s0.2-0.4,0.4-0.4c0.5-0.2,0.6,0.2,0.7,0.5
		c0.1-0.1,0.1,0,0.1-0.2c0.3-0.1,0.6-0.1,0.7,0.2c0.2-0.4,0.5-0.6,0.9-0.5c0.2-0.2,0.4-0.3,0.5-0.6c0.5,0.1,0.8,1.5,0.3,1.6
		c-0.2,0.1-0.4-0.1-0.5-0.1s-0.3,0.3-0.4,0.3c-0.2,0.1-0.6,0.4-0.7,0c-0.2,0.2-0.2,0.3-0.5,0.3s-0.7,0-0.8-0.3
		c-0.3,0.3-0.8,0.3-1.1,0c-0.2,0.2-0.6,0.1-0.9,0c-0.2-0.1-0.2-0.3-0.3-0.5c-0.3,0.1-1.1,0.4-1.1-0.2
		C-54.1,61.5-54.4,61.5-54.5,61.2z"/>
	<path class="st2" d="M-43.6,31.8c0.6-0.3,1-1.3,1.2-1.9c0.3-0.9,0.3-2,0.4-2.9c0.1,0.4,0.1,0.8,0.2,1.3c0,0.4,0.2,1,0.1,1.4
		c0.4-1,0.7-1.8,0.9-2.8c0.2,0.6,0.2,2,0,2.7c0.4-0.4,1.5-0.2,2,0.1c-0.5,0-0.9,0-1.3,0.4c1.3,0,2.5,1.1,3.7,0.3
		c1.2-0.7,2.1-2,2.1-3.4c0.2,0.5,0,1.7-0.1,2.2c-0.2,0.6-0.6,1.5-1.1,1.8c-0.7,0.4-1.7,0.5-2.5,0.3c-0.6-0.2-1.9-0.8-2.5-0.4
		c0.7,0.1,1,0.4,1.6,0.7c-0.1,0.1-0.3,0.1-0.4,0.2c0.6,0.2,1.1,0.3,1.6,0.8c-1.1-0.2-2.2-0.5-3.4-0.4c-1.1,0-2.2,0.4-3.2,0.7
		C-44.1,32.4-43.9,32.1-43.6,31.8"/>
	<path class="st2" d="M-35.3,69.1c0,1.4,0.2,2.3-0.2,3.7c-0.4,1.4-1.3,2.6-1.9,4c1-0.8,2.1-2.3,2.5-3.5c0,1.7-1,3.6-2,5
		c0.4-0.7,1.3-1.1,1.9-1.6c0.7-0.7,1-1.5,1.4-2.3c0.5-1,0.8-2.1,1.3-3.2c0,0.7-0.3,1.4-0.4,2.1c-0.2,0.8-0.2,1.8-0.6,2.6
		c1.2-1.6,2.2-3.4,2.7-5.3c0.3-1.3,0.7-2.7,0.7-4.1c0-0.6-0.1-1.1-0.2-1.7c-0.1-0.7-0.6-1.5-0.6-2.3c-0.3,0.8-0.2,1.8-0.4,2.7
		c-0.2-0.2-0.3-0.5-0.3-0.8c-0.5,1.6-0.7,3-1.4,4.5c0-0.7-0.1-1.3-0.1-2c0,0.2-0.2,0.3-0.2,0.5c-0.2-0.6-0.3-1.4-0.6-2.1
		c-0.2,0.7-0.2,1.9-0.3,2.7c-0.1,0.8,0,2.2-0.5,2.8c0.1-1.2,0.4-2.6,0.1-3.8c-0.2,0.7-0.3,1.4-0.6,2.1c0-0.6-0.1-1.3-0.4-1.9
		c-0.1,0.5,0,1,0,1.5L-35.3,69.1z"/>
	<path class="st2" d="M-12.2,14.6c-0.9,1-2.3,1.9-3.4,2.6c0.4,0,0.8,0,1.2-0.1c-0.2,0.2-0.4,0.4-0.6,0.6c1.6,0.1,3.4-0.4,4.4-1.6
		c-1,2.2-2.9,2.6-4.7,3.8c0.1,0,0.2,0.1,0.4,0.1c0,0.3-0.3,0.7-0.6,1c0.2,0,0.5-0.1,0.7-0.1c-0.3,0.6-0.8,0.9-1.4,1.3
		c1.5,0.1,2.7-0.4,4-1c1-0.4,1.5-1.5,2.3-2.2c0,0.5-0.2,1-0.5,1.4c0.3-0.2,0.5-0.4,0.8-0.5c-0.4,1.2-1.5,2.4-2.6,3
		c0.2,0,0.4,0,0.6,0c-0.3,1.2-1.1,2-2.2,2.6c0.9-0.4,2.1-0.5,2.9-1c-0.6,0.7-1.5,1-2.2,1.6c1.7-0.5,4.1-1.5,4.8-3.3
		c-0.5,0.1-1,0.5-1.5,0.4c0.3-0.7,0.8-1.6,1.5-2c0.7-0.5,1.2-0.3,2.1-0.3c-0.2,0.2-0.3,0.4-0.5,0.6c0.2,0.2,0.8,0.3,1.2,0.3
		c-0.6,0.5-1.2,0.9-1.7,1.5c0.1,0,0.1,0,0.1,0c0.1,0.9-0.6,2.1-1,2.8c-0.5,1-1.4,1.5-2.3,2.1c0.7-0.3,1.5-0.6,2.1-1.1
		c0.8-0.6,1.1-1.3,1.6-2.1c-0.5,1-0.5,2.3-0.6,3.4c-0.2,1.1,0.2,2,1.3,2.4c1.2,0.5,2.5,0.4,3.8,0.3c1.4-0.1,2.4,0.6,3.5,1.1
		c0-0.7-0.6-1.4-1.2-1.8C-0.8,29.9-1,29.6-1,28.6c0.4,0.3,0.8,0.5,1.2,0.7c-0.2-0.5-0.3-1.1-0.6-1.5c0.5,0.5,1.4,0.6,1.6,1.3
		C1,28,0.5,26.9,0,25.9c-0.4-0.8-0.7-1-1.5-1.5c-0.2-0.1-0.9-0.4-1.1-0.6c-0.1-0.2,0-0.2,0-0.5c0-0.4,0.2-0.7-0.1-1
		c-0.2-0.3-0.8-0.3-1-0.6c-0.2-0.3,0-0.6-0.2-0.9c-0.2-0.3-0.7-0.3-1-0.6c0.3-0.4,0-0.9-0.4-1.2c-0.7-0.6-1.5-0.2-2.2-0.5
		c0.6-0.7,1.5-0.8,2.3-0.8c-0.3-0.4-1.1-0.8-1.6-0.9c-0.6-0.1-0.9,0.1-1.5,0.2c0.2-0.4,0.6-0.5,0.9-0.7c-0.7-0.4-1.2-0.1-1.9,0
		c0.1-0.5,0.9-0.7,1.3-0.9c-1.1-0.5-2.4-0.6-3.5-0.1c0.2-0.4,0.4-0.8,0.5-1.2C-11.2,13.9-11.8,14.3-12.2,14.6"/>
	<path class="st2" d="M-9,28.5c-0.1,0.9-1.1,1-1.8,1c-0.2,0.3-0.1,0.6-0.1,0.9c0,0.5,0.4,0.9,0.5,1.4c0.1,0.6-0.5,1.5-0.7,2
		c0.3-0.1,0.5,0,0.8-0.1c-0.2,0.7-0.9,0.9-1.4,1.3c0.5,0.2,1.4,0,1.9-0.2c0,0.4-0.1,1-0.3,1.4c0.4-0.4,0.8-0.6,1-1.1
		s0.3-1.3,0.3-1.7c0.2,0.5,0.2,1,0.2,1.6s-0.3,1.2-0.3,1.8c0.4-0.2,0.9-0.4,1.2-0.8c0.2,0.8,1.9,0.9,2.6,1.1c0.2-1.3-1.2-2.3-2-2.8
		c0.6,0.1,1.4,0.3,1.9,0.6c-0.1-0.8-0.9-1.1-1.6-1.5c0.3,0.2,1,0.2,1.3,0C-6,32.6-7,32.1-7.7,31.5c0.3,0.2,1,0.2,1.3,0
		c-0.7-0.4-1.2-1-1.4-1.7C-8,29.1-8,28.2-9.1,28.3C-9.1,28.4-9.1,28.4-9,28.5"/>
	<path class="st1" d="M-55.2,46.4c0.2,0,0.3-0.1,0.5-0.2c0.5-0.2,0.4-0.3,0.7-0.4c-0.8-0.2-0.5-0.1-1.2,0.1c0.2-0.1,0.3-0.3,0.4-0.5
		c-0.2,0.1-0.3,0-0.5,0.1c0.2-0.1,0.4-0.3,0.5-0.4c-0.3,0.1-0.7,0.1-1,0.1c0.2-0.2,0.4-0.3,0.5-0.5c-0.6,0.1-1.3,0.3-1.7,0.7
		c0.3-0.4,0.7-0.8,1-1.3c-0.4,0.2-0.9,0.3-1.2,0.5c0.3-0.6,0.9-1.5,0.8-2.2c-0.3,0.6-0.9,1.1-1.2,1.8c0.1-0.3,0.1-0.7,0.1-1
		c-0.3,0.7-0.9,1.2-1.2,1.9c-0.1-0.4-0.1-0.8-0.3-1.2c-0.1,0.3-0.3,0.6-0.5,0.8c-0.1-0.2-0.1-0.4-0.2-0.5c-0.1,0.3-0.3,0.6-0.6,0.9
		c0-0.1-0.2-0.2-0.2-0.3c-0.1,0.1-0.1,0.3-0.1,0.4l0.1,0.2c-0.1,0-0.6-0.3-0.8-0.4c0.1,0.2,0.1,0.5,0.3,0.7
		c-0.3,0.1-0.6,0.1-0.9,0.3l0.1-0.1c-2.1,0.8-3.9,3.4-2,5.4c0.4,0.4,0.6,0.7,1,1.1c0.5,0.4,1.1,0.7,1.7,0.9c1.1,0.4,2.3,0.6,3.5,0.4
		c1.3-0.2,1.8-0.5,2.7-1.4c1-0.9,1.1-2.1,1-3.4C-54.2,47.6-54.6,46.8-55.2,46.4z"/>
	<path class="st2" d="M-57.7,46c0.4,0.1,0.7,0.1,1.1,0.4c0.1,0,0.7,0.6,0.8,0.4c0,0,0.5,0.5,0.5,0.6c-0.3,0.4-2.2,0-2.4-0.1
		c0-0.2-0.4-0.2-0.4-0.4c-0.2,0.1,0,0-0.2,0.1c-0.2-0.1-0.3,0-0.4-0.2c-0.2-0.1-0.3,0-0.4,0.1c-0.1,0-0.6,0.4-0.7,0
		c-0.1-0.1-0.1,0-0.1-0.2c0,0.1-0.1-0.5-0.1-0.5l-0.1-0.2c-0.1-0.1-0.5-0.3-0.6-0.3c-0.1-0.4,1.4-0.2,1.4-0.3
		C-58.8,45.8-58.2,45.8-57.7,46z"/>
	<path class="st2" d="M-56,51.5c-0.1,0.3-0.3,0.7-0.5,0.6l-1.1,0.4c-0.3-0.5-1.9-0.1-1.7-0.8c0.3-0.1,1.3-0.2,1.6-0.3
		C-57.5,51.3-55.8,50.9-56,51.5z"/>
	<path class="st2" d="M-24.4,70.5c0,1.2-0.3,2.3-0.9,3.2c-0.4,0.6-1.2,1-1.4,1.7c0.4-0.1,0.8-0.4,1.2-0.6c-0.1,0.5-0.7,1-1.1,1.4
		c-0.4,0.5-0.7,1-1.1,1.5c-0.6,0.9-1.3,2-1.7,3.1c-0.5,1.2-0.4,2.4-0.7,3.7c0.6-1.5,1.4-3.1,2.4-4.4c0.6-0.8,1.4-1.4,2.1-2.1
		c0.6-0.7,1.1-1.3,1.6-2c-0.3,1.5-0.4,3-0.7,4.5c0.2-1,1.4-2,1.4-3.1c0.4,1.3,1.3,2.4,1.7,3.8c0.3-1.3,0-2.6-0.6-3.8
		c0.6,0.8,1.3,1.7,1.7,2.7c0.5,1,0.4,2.5,0.4,3.6c0.5-1.4,0.9-2.7,1-4.2c0.1-1.3-0.2-2.6-0.8-3.7c0.5,0.4,1.5,1.3,2.5,3.2
		c0.7-1-1-2.9-1.4-4.2c0.6,0.8,1.2,1.3,2,1.8c0.5,0.3,0.9,0.6,1.3,1c0.3,0.3,0.8,0.8,1.2,0.5c-0.4-0.5-0.6-0.9-1.1-1.4
		c-0.5-0.4-0.3-0.3-0.7-0.7c1.3,0.3,1.8,0.7,3.1,0c-0.7,0-1.5-0.3-2.2-0.5c-0.7-0.2-1.6-0.4-2.2-0.9s-0.9-1.4-1.4-2.1
		c0.7,0.4,1.4,0.9,2.2,1.1c0.4,0.1,1.2,0.1,1.5-0.2c-1.4-0.2-2.6-0.8-3.8-1.7c-0.5-0.4-1.1-0.8-1.5-1.4c-0.2-0.3-0.3-0.7-0.5-1
		c-0.4,0.7-0.2,1.8-0.3,2.6c-0.5-0.7-0.8-1.3-1.2-2c-0.9,1.3-0.2,3.2-1.1,4.5c0.3-0.8,0.2-1.9,0.2-2.7c0-0.8,0.1-1.6-0.1-2.3
		c-0.1,0.6-0.3,1.1-0.4,1.7c-0.2-0.7-0.3-1.4-0.7-2C-24.5,69.6-24.5,70.1-24.4,70.5"/>
	<path class="st1" d="M-46.4,36.9c-0.4,0.2-0.9,0.3-1.3,0.5c0.4,0.1,0.8,0,1.2,0c-0.8,0.9-2.1,1.2-3,1.9c0.8-0.3,1.7-0.3,2.5-0.5
		c-0.6,0.3-1.3,0.5-1.8,0.8c0.6-0.2,1.2-0.1,1.8-0.1c-0.9,0.5-2.4,0.9-3.1,1.6c0.9-0.1,2-0.4,2.9-0.6c-0.5,0.6-1,0.8-1.7,1
		c0.4,0,0.7,0.1,1.1,0.1c-0.7,0.5-1.4,0.6-2,1.3c1.1-0.5,3-0.8,4.2-1c1.3-0.2,3-0.2,4.2,0.2c-1.2,0-2.6,0.3-3.9,0.4
		c0.9,0.4,1.9,0.6,2.8,1.3c-0.9-0.6-2.5-0.8-3.5-0.3c0.9,0.3,2,0.5,2.9,1c-0.9,0-1.6,0.2-2.5,0.6c0.4,0.5,2.1,0.5,2.8,0.8
		c-0.4,0.1-0.9,0.1-1.3,0.2c3,1.2,4.7,3.5,6.2,6.3c0-1.6-0.4-3.6-2-4.4c0.6,0.4,1.4,0.7,1.9,1.2c0.4,0.4,0.8,1,1.2,1.4
		c0-1.8-2.2-3.5-3.6-4.4c0.9,0.3,1.5,0.5,2.2,1.1c0.5,0.4,1.3,0.7,1.7,1.3c0.1-1-0.9-1.8-1.4-2.5c0.5,0.2,1.1,0.3,1.5,0.6
		c-0.2-0.2-0.3-0.4-0.5-0.6c0.9,0.2,1.7,0.7,2.3,1.4c-0.8-1.9-2.4-3.5-4-4.6c0.7,0.3,1.4,0.5,2.1,0.8c0.6,0.3,1.2,0.7,1.8,1.1
		c-0.3-0.6-0.7-1.2-1.2-1.7c0.5,0.6,1.2,0.9,1.7,1.5c0.4,0.5,0.6,1.2,0.9,1.7c-0.5-1.7-1.2-3.2-2.8-4.1c-1.9-1.1-4.7-2.4-6.9-2.2
		c1.2-1,3.2,0.2,4.5,0.1c-0.7-0.6-2.1-0.6-3-0.8c-0.8-0.1-2.4,0-3-0.5c1.5-0.8,3-0.1,4.6,0c-0.4-0.5-1.8-1.1-2.4-1.2
		c-0.6-0.1-1,0.2-1.6,0.2C-43.6,37-42.7,37-42,37c-1.2-0.3-2.1,0.5-3.2,0.3c0.2-0.3,0.7-0.5,1-0.6c-0.3,0-0.7,0-0.9-0.3
		c1.4-0.4,3.1-0.6,4.4-0.3c-1.1-0.6-2.7-0.6-3.9-0.3c-0.9,0.2-2.8,0.6-3.1,1.6"/>
	<path class="st1" d="M-37.8,36c0.5,0.7,1.1,1.4,1.6,2.1c0-0.5,0.1-1-0.1-1.4c0.5,0.3,0.9,1,1,1.6c0-0.1,0.2-0.3,0.2-0.5
		c0.6,0.9,1,1.7,1.4,2.7c0.5,1.1,1.1,2.1,1.3,3.3c0-1.7-0.7-3.4-0.8-5.1c0.3,0.4,0.8,1.1,1.1,1.7c-0.2-0.9-0.4-1.9-0.7-2.8
		c0.3,0.4,0.6,0.7,0.8,1.1c0-1-0.3-1.9-0.6-2.8c1.9,2.3,2.3,5.8,1.8,8.8c0.4-0.7,1-1.8,1.1-2.7c0.5,1.7-0.5,3.7-1.1,5.3
		c0.6-1.1,1.9-2.5,1.9-3.8c0.7,0.4,0.8,1.9,0.7,2.7c0.6-1.1-0.2-2.5-0.2-3.6c0.8,0.3,1.4,0.8,1.7,1.6c-0.1-0.9-0.9-1.7-1.3-2.4
		c0.5,0,0.9,0.2,1.4,0.2c-0.3-1.1-1.6-1.6-2.5-2.1c0.1-0.5-0.3-1.1-0.6-1.5c1.8,0.5,2.6,1.7,3.9,2.9c-0.2-2.1-2.7-2.9-4.3-3.7
		c1.1-0.4,2.3,0.2,3.4,0.3c-0.4-1.1-2.3-1.3-3.3-1.7c-0.8-0.3-0.7-0.7-1-1.5c-0.2-0.5-0.4-0.9-0.7-1.4c0,0.7,0,1.5,0,2.2
		c-0.5-0.6-0.9-1.3-1.5-1.8c0.1,0.3,0.1,0.7,0.2,1c-0.3-0.3-0.7-0.3-1.1-0.4c0.3,0.7,0.6,2.1,0.5,2.9c-0.4-0.6-1.1-1.4-1.9-1.6
		c0.1,0.3,0.2,0.5,0.3,0.8c-0.8-0.3-1.4-0.9-2.2-1.2c-1.2-0.5-2.5-0.5-3.7-0.7c0.7,0.2,1.5,0.4,2.1,0.8c-0.6,0-1.5-0.2-2.1,0
		c1,0.3,2.1,0.5,3,1"/>
	<path class="st2" d="M-27.4,24c-0.4-1.3-1-2.4-2.2-3.2c-0.8-0.6-2.1-1.1-2.8-1.8c1.6,0.6,3.2,1.2,4.5,2.3c-0.6-0.8-1.1-1.6-1.9-2.3
		c-1.1-0.9-2.5-0.9-3.7-1.5c1,0,2.4,0.2,3.3,0.5c-0.5-0.5-1.5-0.9-2.1-1.1c-1-0.4-1.9-0.5-3-0.3c1.3-1,2.7-0.8,4.3-1.3
		c-2-0.8-4.6-0.7-6,1.1c0.3-0.6,0.3-1.4,0.6-2c-0.6,0.5-1.3,0.8-1.6,1.6c0.2-0.7,0.6-1.5,0.7-2.2c-0.1,0.4-0.6,0.8-0.8,1.1
		c-0.6,0.7-1.4,1.6-1.6,2.5c0-1,0.1-2,0.4-3c-1.4,1-1.8,2.8-2.7,4.1c0.1-0.9,0.1-2.2,0.5-3.1c-0.6,0.7-1.2,1.8-1.2,2.8
		c-0.2-1-0.4-1.9-0.2-2.9c-0.5,1-0.8,2.1-0.7,3.2c0,0.4,0.1,0.8,0.1,1.2c0,0.5-0.2,0.9-0.2,1.4c-0.8-0.9-1.3-2.5-2.4-3.1
		c0.2,0.9,0.8,1.8,0.7,2.7c-0.6-0.8-2.2-1.6-3.2-1.2c1,0.4,2.5,1.1,2.9,2.1c0.4,0.9,0.6,1.8,0.7,2.8c-0.4-0.8-0.8-1.8-1.4-2.6
		c-0.7-0.9-1.3-1.1-2.4-1.1c0.5,1,0.3,2.4,1,3.3c-0.7-0.6-1.5-1.2-2.3-1.6c0.3,1,0.5,1.9,0.5,3c-0.5-1-1.3-1.6-2.1-2.5
		c0.2,0.6,0.5,1.3,0.6,2c-0.4-0.8-2-2-2.9-1.9c0.5,0.5,1.6,1.6,1.6,2.3c-0.3-0.3-0.7-0.6-1.1-0.9c0.6,0.9,1,2,1.4,3
		c-0.3-0.6-1.4-1.5-2.1-1.7c-1-0.3-2.5-0.5-3.4,0.1c1.3,0.1,2.4,0.7,3.4,1.5c-1.1-0.3-2.2-0.4-3.4,0.1c0.9-0.2,2,0,2.8,0.5
		c-0.3,0-0.7,0.1-1,0.1c0.3,0.1,0.6,0.1,0.9,0.3c0.1,0.1,0.2,0.2,0.4,0.3c-0.3-0.1-0.6,0.2-0.8,0.4c0.8,0,1.4,0.2,2.2,0.4
		c-0.4,0-0.7,0-1,0.2c0.3,0.1,0.7,0.1,1.1,0.2c-0.2,0.7-0.3,1.4-0.7,2c0.3-0.2,0.8-0.4,0.9-0.7c0.3,0.7-0.6,1.5-1,1.9
		c0.8-0.4,1.5-1.4,1.7-2.3c0.1,0.9,0.1,1.8-0.2,2.7l0.1-0.1c0.3-0.4,0.6-1.3,0.8-1.8c0.4-0.9,0.5-1.9,0.5-2.9
		c0.1,0.1,0.2,0.2,0.3,0.3c0.3-0.9,0.1-2,0.1-2.9c0.2,0.5,0.3,1.1,0.4,1.7c0.1,0.6,0.1,1.6,0.5,2.1c0.2-0.6,0.1-1.2,0.2-1.8
		c0.1-0.7,0.4-1.3,0.6-1.9c0.2,0.6,0.1,1.3,0.2,2c0.5-0.8,0.7-1.8,0.8-2.8c0.8,2.1-0.1,4.3,0.1,6.4c1.1-1.6,1.5-3.5,1.7-5.5
		c0.4,1.5,0.5,3.2,0.4,4.8c0.6-1.4,0.7-3,1.3-4.4c0.2,1,0.4,2.3,0.3,3.4c0.3-0.4,0.6-1.4,0.7-1.9c0.3-1.7,0.2-3.3-0.5-4.9
		c0.5,1.3,1.4,2.4,1.8,3.7c0-1.4-0.3-2.5-0.6-3.9c0.4,0.9,1.1,1.5,1.5,2.4c0.1-1-0.3-2-0.2-2.9c0.1,0.7,0.6,1.3,0.8,1.9
		c0.2,0.8,0.1,1.7,0.3,2.5c0.8-0.9,0.2-2.6,0.1-3.6c0.6,0.5,0.8,1.4,1.3,2c-0.1-0.6-0.4-1-0.4-1.7c0-0.5,0-0.9,0.2-1.3
		c-0.3,0.1-0.6,0.3-0.9,0.5c0.1-0.5,0.2-1.1,0.2-1.6c-0.2,0.1-0.5,0.3-0.6,0.6c0.1-0.7,0-1.6,0-2.3c0.3,0.1,0.6,0.3,0.7,0.7
		c0.2-0.6,0.2-1.2,0.5-1.8c0.1,0.4,0.1,0.8,0.4,1.1c0.3-0.6,0.8-1.3,1.2-1.8c-0.1,0.7-0.3,1.2-0.3,1.8c0.5-0.6,1.3-1.1,2-1.4
		c-0.2,0.5-0.8,1-0.9,1.6c0.6-0.1,2.2-0.2,2.6,0.2c-1.1-0.2-2.4,0.9-2.8,1.8c0.6-0.2,1.8-0.5,2.3-0.2c-1.3,0-2.9,0.3-3.4,1.8
		c1.2-0.4,2.9-1.4,4.2-0.6c-0.7,0-2.6,0-2.9,0.9c1.1-0.2,2.3-0.5,3.4,0c0.8,0.4,1.3,1.3,1.9,2c0-0.8,0-2.1-0.6-2.7
		c0.7,0.8,1.3,1.4,1.7,2.4c0.3,0.7,0.5,1.4,0.7,2.1c0.1-1.3,0.3-2.1-0.3-3.5c-0.6-1.4-1.3-1.9-2.4-2.8c2.2,0.7,3.5,2,4.4,4.2
		c0.8,2,0.1,4.1,0.8,6.1c0.2-1.2,0.7-2.3,0.6-3.5C-26.9,26.6-27,25.2-27.4,24z"/>
	<path class="st2" d="M-23.6,24c1,0.6,1.4,1.7,1.6,2.8c0.1,0.7,0.3,1.3,0.3,2c0,0.9-0.1,1.8-0.1,2.7c0.3-1.6,0.4-3.1,0.5-4.7
		c1.1,1.4,1.3,3.1,1.3,4.9c0.2-2,0.5-4.2-0.3-6.1c0.6,1.2,1.4,2.4,1.7,3.8c0.2,0.9,0.3,1.9,0.6,2.8c0.3,0.7,0.8,0.9,1.5,1.2
		c-0.5-0.6-0.9-1.1-1.1-1.9c-0.2-1,0.1-1.7,0.4-2.6c0.4,0.7,0.5,1.7,0.5,2.7c0.3-0.1,0.3-0.7,0.4-1c0.2-0.5,0.2-0.9,0.2-1.4
		c0.2,0.5,0.4,1,0.4,1.6c0,0.5-0.1,0.9-0.2,1.4c0.6-1.2,1.3-2.2,0.9-3.6c-0.3-1.2-1.1-1.7-2-2.4c0.4,0.2,0.9,0.1,1.4,0.3
		c-0.4-0.4-0.9-0.8-1.3-1.3c0.3,0,0.6,0.1,0.9,0.1c-0.8-0.7-1.8-1.4-2.1-2.6c0.4,0.4,1,0.7,1.6,0.7c-0.7-0.4-1-1.4-1.5-2.1
		c0.3,0,0.9,0,1.1-0.2c-0.6-0.6-1.4-1-2.1-1.6c0.7,0.2,2.4-0.5,2.7-1c-0.5,0.1-0.9,0.1-1.4,0.1c0.4-0.3,0.7-0.3,0.9-0.7
		c-0.5-0.2-1.3,0.2-1.8,0.2c-0.7,0-1.3-0.4-1.9-0.6c0.7-0.5,2-1.1,2-2.2c-1.5,0.8-3,1.4-4.8,0.9c0.3-0.3,0.9-0.4,1.3-0.7
		c0.4-0.2,0.8-0.5,1-0.8c-0.8-0.1-1.5,0.3-2.3,0.4c-0.7,0.1-1.6,0.1-2.3,0c0.6-0.2,2.3-1.1,2.3-1.7c-1.4,0.5-2.9,0.9-4.4,1.2
		c0.3-0.6,1.1-0.8,1.4-1.4c-0.8,0.1-1.5,0.7-2.1,1.1c-1,0.6-2,1.3-3,1.8c0.8-0.4,1.8-0.4,2.6-0.8c0.5-0.2,0.8-0.1,1.3,0.1
		c-0.7,0.2-1.5,0.5-2.3,0.8c1.1-0.3,2.5-0.3,3.5,0.1c-0.9,0-1.8,0.4-2.6,0.7c1.7,0,3.2,0.6,4.6,1.5c-0.7,0-1.3-0.2-2-0.3
		c-0.6,0-1.1,0.2-1.7,0.2c0.4,0,0.8,0.2,1.2,0.4c0.7,0.3,1.5,0.5,2.2,0.9c0.6,0.3,1.1,0.9,1.5,1.4c-1-0.7-2-0.9-3.2-1.2
		c0.8,0.5,1.8,0.9,2.4,1.7c0.5,0.6,0.9,1.2,1.2,1.9c-1-0.9-2.1-1.8-3.5-2.1c0.7,0.6,1.7,1.4,2.2,2.1L-23.6,24z"/>
	<path class="st1" d="M-5.5,24.5c0,0.6,0.2,1-0.2,1.5c0.1-0.1,0.3-0.2,0.4-0.3c0.1,0.7-0.5,1.3-0.7,1.8c0.3-0.5,0.8-1,1.2-1.4
		c0.1,1.4-0.5,2.9,0.3,4.1c0.2-0.6,0-1.3,0.2-1.8c0.3,0.8,0.5,1.3,1,1.5c-0.1-0.5-0.3-1.1-0.4-1.6c0.9,0.5,1.6,0.7,2.1,1.7
		c0-1-1.2-2.1-1.7-2.8c0.5,0.4,1.3,0.7,1.5,1.2c0.1-0.3-0.3-0.7-0.4-1c0.6,0.2,1,0.4,1.6,0.6c-0.5-0.7-1.8-1.1-2.5-1.6s-1-1-1.1-1.9
		c0.1,0.2,0.3,0.3,0.5,0.4c-0.2-0.6-0.9-1-1-1.7c-0.1,0.2-0.2,0.5-0.4,0.7c-0.1-0.3-0.2-0.6-0.3-0.9c-0.2,0.3-0.3,0.7-0.1,1
		c0-0.1,0,0.4,0,0.3L-5.5,24.5z"/>
	<path class="st2" d="M-16.6,38.7c-0.4-0.8-0.5-1.7-1.1-2.2c0.1,0.4,0.4,1.3,0.3,1.8c-0.2-0.2-0.5-0.3-0.7-0.6
		c0.1,0.3,0.2,0.6,0.2,0.9c0,0.7,0.1,1.3,0.1,2c0,0.9-0.6,2.3-1.1,3c0.2-0.2,0.4-0.2,0.6-0.3c-0.2,0.7-0.6,1.1-1.2,1.3
		c0.5,0.2,0.9,0.3,1.5,0.3c-0.4,0.5-0.7,0.8-1.2,0.7c0.3,0.6,0.8,0.6,1.3,0.6c-0.3,0.5-1.2,0.6-1.5,0.5c0.3,0.8,0.9,0.9,1.5,1.1
		c-0.2,0.4-0.6,0.2-0.9,0.3c0.6,1.1,2.4,1.6,3.3,1.6c0.6,0,1.3-0.3,1.9-0.5c0.6-0.3,1.1-0.5,1.6-1c-0.4,0.1-0.9,0.2-1.3,0.2
		c-0.5,0-0.8-0.3-1.3-0.4c0.7,0,1.3-0.2,1.8-0.7c-0.3,0.1-0.5,0-0.8,0c0.9-0.6,2.2-0.7,2.6-2.1c-0.6,0.4-1.6,0.5-2.2,0.4
		c0.2-0.3,0.5-0.4,0.8-0.5c0.3-0.2,0.5-0.4,0.8-0.6c0.5-0.5,0.9-1.3,1.1-2.1c-0.6,0.8-2,0.8-2.8,0.7c0.7-0.7,1.1-1.4,1.4-2.4
		c-0.2,0.4-0.7,0.9-1.1,1c0.1-0.8,0.4-1.6,0.7-2.3c-0.3,0.3-0.7,0.7-1.1,0.7c0-0.6,0.1-1.2,0.2-1.8c-0.3,0.6-0.7,1.2-1.2,1.7
		c0-0.5,0-1,0-1.5c0-0.6,0.1-1.3,0-1.8c-0.3,0.7-1,1.5-1.1,2.3c0.1-0.7-0.1-1.5-0.2-2.2c-0.1-0.9-0.3-1.5-0.9-1.9
		c0,0.4,0.1,0.7,0.1,1c0,0.4-0.1,0.8-0.1,1.2C-16.7,37.7-16.6,38.2-16.6,38.7"/>
	<path class="st2" d="M-7.1,39c0,1.6-1.8,1.9-2.8,2.5c0.4,0.2,0.9,0.2,1.3,0c-0.5,0.7-1.3,1.1-1.7,1.7c0.3,0.1,0.6,0.2,0.9,0.2
		c-0.1,0.5-0.5,0.8-0.9,1c0.5,0.5,1.9,0.3,2.6,0.2c-1,1.1-1.7,2-3.1,2.4c0.4,0.2,0.9,0.3,1.3,0.1c-0.7,0.6-1.4,1-2.1,1.6
		c0.5,0.2,1,0.2,1.5,0.2c-0.3,0.5-0.8,0.6-1.3,0.7c0,0.9,1.9,1.2,2.6,1.4c-0.8,0.3-2.2-0.1-3.2-0.2c0,2,1.6,2.9,3.2,2.9
		c-1,0.6-3.3-0.1-4.2-0.7c0.5,1.2,2.5,2.7,3.7,2.2c-0.5,0.5-1.6,0.8-2.3,1c0.5,0.3,1.3,0.4,1.9,0.3c-1.4,0.8-2.3,0.7-3.8,0.9
		c0.2,0.7,1.1,1.4,1.9,1.4c-0.7,0.2-1.5,0.1-2.2,0c0.7,0.4,1.2,1.1,2.1,1.3c-0.3,0.9-3,0.1-3.6-0.1c-0.1,0.8,1.1,1.5,1.6,1.7
		c-0.4,0-1.4,0-1.7,0.2c0.5,0.3,1.1,0.6,1.6,0.8c-0.5,0.4-1,0.4-1.5,0.5c0.2,0.3,0.4,0.5,0.7,0.7c-0.9,0.4-2.3-0.2-3-0.9
		c0.4,1.5,1.2,2.6,2.7,2.8c-0.3,0.5-1,1-1.5,1c0.5,0.7,1.3,0.4,1.8,0.9c0.3,0.2,0.3,0.9,0.3,1.3c0,1-0.4,2-0.7,2.9
		c0.6-0.5,0.8-1.9,1-2.6c0.2-0.8,0.7-1.7,0.6-2.6c0.4,1.3,0.5,2.6,0.3,4c-0.2,1.2-0.1,0.9-0.4,2c0.6-0.8,0.6-0.7,1-1.7
		c0.5-1.4,0.4-2.3,0.5-3.8c0.3,1.3,0.7,2.6,0.5,4c0.3-1.1,0.9-1.7,0.8-2.9c-0.1-0.9-0.1-1.6,0-2.5c0.3,1.1,0.5,2.1,0.8,3.2
		c0-1.2,0.4-2.3,0.5-3.6c0.1-1.1-0.1-2.2,0-3.2c0.9,1.7,1.9,4.2,3.7,4.6c-0.3-0.6-0.7-1.2-1-1.8c0.6,1,1.7,1.2,2.7,1.3
		c-1.3-1.3-1.9-1.6-3.1-3C-6,64-5.2,64.5-4,64.7c-0.8-1.1-1.9-2.7-2.3-4c0.9,0.5,1.5,1,2.3,1.7c0.2-1.4-0.4-2.8-0.6-4.1
		c1,0.7,2.2,2.4,2.1,3.8c0.3-1.9-0.2-4.3-0.8-5.9c0.4,0.5,0.5,1.1,0.9,1.5c0.2,0.3,0.6,0.5,0.9,0.7c-0.2-0.8-0.6-1.6-0.5-2.5
		c0.6,0.8,1.3,1.4,1.8,2.3c-0.1-0.9-0.5-1.8-0.8-2.6c-0.4-1-1.1-1.7-1.4-2.7c0.4,0.3,0.9,0.6,1.2,1c0.4,0.4,0.7,0.9,1.1,1.3
		c0-0.9-0.5-1.7-0.8-2.5c-0.3-0.7-1.2-1.4-1.4-2c0.7,0.1,1.3,0.2,2,0.6c-0.3-1-2.4-2.2-3-2.9c0.5,0.4,1.2,0.4,1.8,0.6
		c0.6,0.2,1.2,0.4,1.8,0.6c-0.9-1-2.5-1.4-3.2-2.8c0.9,0.5,2.1,0.8,3.2,1c-1.1-0.9-2.8-2.5-2.8-4.2c-0.8,1.3-2.3,2.7-3.6,3.2
		c0.3-0.6,1-0.9,1.5-1.3c0.4-0.5,0.7-1,0.8-1.6C-4.5,44.6-5.5,45-6.2,45c0.3-0.4,0.7-0.7,1-1.2s0.5-1.1,0.6-1.6
		c-0.3,0.2-0.6,0.5-0.9,0.4c0.7-1.3-0.3-3.1-0.8-4.2c0.4,0.2,0.8,0.4,1.3,0.4c-0.2-0.8-1.5-1.3-2.1-1.6C-7,37.7-6.9,38.6-7.1,39"/>
	<path class="st1" d="M-45.6,50.9c-0.5-1.2-1.7-1-2.9-1.6c1.5,0.1,2.7,0,4,0.6c-1-1.4-2.9-1-4.4-1.2c0.7-0.5,1.3-0.9,2.1-1.2
		c-1.2-0.2-2.4,0.4-3.3,1c0.1-0.3,0.3-0.5,0.4-0.7c-0.4,0.1-0.8,0.2-1.1,0.3c-0.1-0.1,0.1-0.6,0-0.6c-0.5-0.2-1,0.4-1.4,0.4
		c0.2-0.1-0.1-0.7,0.1-0.8c-0.4,0.1-0.9,0.4-1.2,0.7c-0.3,0.2-0.2,0.8-0.5,1.1c0.5-0.3,1.1-0.3,1.6-0.4c0.2,0.3-0.6,0.6-0.8,0.9
		c0.5,0.2,1.6,0.3,1.1,0.8c-0.3-0.1-1,0.2-1.3,0.3c0.3,0.4-0.8,1,1.2,1c0.2,0.1,0.5-0.3,0.9-0.1c0.5,0.5,0.4,1,0.9,2
		c0.5-0.3,0.2-1.7,0.2-2.1c0.7,1,1.4,3.6,1.6,3.5c0.3-0.7-0.1-1.6-0.1-2.3c0.5,0.6,1,1.4,1.2,2.1c0.3-0.6-0.2-1.6-0.3-2.2
		c0.2,0.4,0.6,0.6,0.9,1c0.3,0.4,0.7,1.1,0.8,1.6c0-1.7-0.4-2.9-0.8-3.7c0.7-0.1,1.5,1.8,1.8,2.7C-45,52.8-45.2,51.7-45.6,50.9z"/>
	<path class="st2" d="M-55.9,48.5c-0.7,0.1-2.5-1.4-2.7-0.5c-0.5-0.1-1.4,0-1.9,0.2c-0.2,0.9,1,0.9,1.6,0.9c0,0.3-0.3,0.4-0.7,0.4
		c-0.1,0.5,0.6,0.8,1.1,0.8c0.6,0.1,0.9-0.2,1.4-0.4C-57.1,51.2-54.8,49.1-55.9,48.5z"/>
</g>
</svg>
